<svg width="58" height="60" viewBox="0 0 58 60" fill="none" xmlns="http://www.w3.org/2000/svg">
<path d="M11.91 7.81826C16.7207 3.71568 22.8526 1.45999 29.189 1.45999C38.1972 1.45999 46.395 5.88377 51.359 13.337L48.3806 12.7238C47.9791 12.6435 47.5995 12.899 47.5192 13.2932C47.4389 13.6874 47.6944 14.0743 48.0886 14.1546L52.8263 15.1328C52.8774 15.1401 52.9212 15.1474 52.9723 15.1474C53.111 15.1474 53.257 15.1036 53.3738 15.0306C53.5344 14.9211 53.6512 14.7605 53.6877 14.5707L54.6659 9.83305C54.7462 9.43886 54.4907 9.05196 54.0965 8.97166C53.7023 8.89136 53.3154 9.14686 53.2351 9.54106L52.6073 12.5851C47.3732 4.68658 38.7082 0 29.1817 0C22.5022 0 16.0272 2.37979 10.961 6.70867C10.6544 6.97147 10.6179 7.43137 10.8807 7.73796C11.1435 8.04456 11.6034 8.08106 11.91 7.81826Z" fill="#82C341"/>
<path d="M20.4068 53.2751C14.4354 51.2092 9.38382 47.0628 6.17913 41.5951C1.61665 33.828 1.28085 24.5132 5.19364 16.4687L6.17183 19.3448C6.27403 19.6514 6.55873 19.8412 6.86533 19.8412C6.94563 19.8412 7.02593 19.8266 7.09893 19.8047C7.47852 19.6733 7.68292 19.2572 7.55152 18.8776L5.99663 14.3006C5.86523 13.921 5.45643 13.7166 5.06954 13.848L0.492457 15.4029C0.112859 15.5343 -0.0915404 15.9504 0.039859 16.33C0.171258 16.7096 0.580057 16.9213 0.966955 16.7826L3.90884 15.7825C-0.252139 24.2869 0.0909586 34.1273 4.91624 42.3397C8.29612 48.0994 13.6324 52.4721 19.925 54.6548C20.0053 54.684 20.0856 54.6913 20.1659 54.6913C20.4652 54.6913 20.7499 54.5015 20.8594 54.2022C20.9908 53.8226 20.7864 53.4065 20.4068 53.2751Z" fill="#82C341"/>
<path d="M56.7602 22.9004C56.6872 22.5062 56.3076 22.2434 55.9061 22.3164C55.5119 22.3894 55.2491 22.7763 55.3221 23.1705C56.4974 29.3754 55.417 35.8286 52.2707 41.3255C47.8032 49.1511 39.89 54.0712 30.9621 54.6844L32.9696 52.4068C33.2397 52.1075 33.2105 51.6403 32.9039 51.3775C32.6046 51.1074 32.1447 51.1366 31.8746 51.4432L28.6772 55.0713C28.5458 55.2173 28.4874 55.4071 28.4947 55.5969C28.5093 55.7867 28.5969 55.9692 28.7429 56.1006L32.371 59.298C32.5097 59.4221 32.6849 59.4805 32.8528 59.4805C33.0572 59.4805 33.2543 59.4002 33.4003 59.2323C33.6704 58.9257 33.6412 58.4658 33.3346 58.203L30.9986 56.1444C40.4448 55.5239 48.8106 50.3263 53.5336 42.0555C56.8478 36.252 57.9866 29.4557 56.7529 22.9077L56.7602 22.9004Z" fill="#82C341"/>
<path d="M26.5974 11.5636L24.568 9.84082C24.568 9.84082 17.1804 11.5271 13.1946 18.1847L11.5156 21.2945L12.8588 25.8642L12.6106 30.0544L13.7056 33.2153L15.6547 35.6462L16.7497 37.5953L18.4068 39.2232L19.1806 40.2744L19.7865 37.5953L19.2974 34.7994L20.0274 32.8503L21.4874 30.0544L19.1733 28.8353L16.1073 28.0615L13.3333 26.0321L14.7933 24.4481L16.7424 24.2072L18.9543 22.8494L20.3924 21.4113L21.0348 19.5717L22.4729 17.8124L22.0714 16.1334L20.1442 14.6004L24.2833 13.8704L26.5974 11.5563V11.5636Z" fill="#82C341"/>
<path d="M33.0579 22.1121L35.9706 21.4551L39.5403 21.8712L41.2923 23.0173L41.9201 24.1853L41.3872 26.8863L40.4163 28.2367L39.2702 30.3829L38.4161 31.3903L38.1314 32.9817L38.1606 34.2008L37.2189 34.9016C37.2189 34.9016 36.6349 33.8869 36.3867 33.6533C36.1385 33.4197 35.5691 29.6529 35.5691 29.6529L35.8392 27.5141L32.2987 26.6381L32.1162 23.5502L33.0652 22.1121H33.0579Z" fill="#82C341"/>
<path d="M38.3207 11.6733L36.3278 13.5786L34.8094 13.2136L32.9844 13.5786L32.6559 15.5642L31.8164 16.3161L32.0719 19.5719L32.6559 20.2508H33.5976L35.0722 19.2434L36.1526 18.7981L36.7585 19.5646H37.2987L36.8169 17.2724L38.7003 19.5646L39.6128 19.9588H40.7078L41.9269 20.2508L42.5985 21.2363L42.9781 22.1488L43.9343 23.492L44.4818 24.8863L46.6134 25.4922L47.6646 25.1345C47.6646 25.1345 46.7448 16.1409 38.3207 11.666V11.6733Z" fill="#82C341"/>
<path d="M29.1453 47.4722C18.4144 47.4722 9.68359 38.7415 9.68359 28.0105C9.68359 17.2796 18.4144 8.54883 29.1453 8.54883C39.8763 8.54883 48.607 17.2796 48.607 28.0105C48.607 38.7415 39.8763 47.4722 29.1453 47.4722ZM29.1453 10.0015C19.2174 10.0015 11.1436 18.0753 11.1436 28.0032C11.1436 37.9312 19.2174 46.005 29.1453 46.005C39.0733 46.005 47.147 37.9312 47.147 28.0032C47.147 18.0753 39.0733 10.0015 29.1453 10.0015Z" fill="#231F20"/>
</svg>
