<svg width="73" height="57" viewBox="0 0 73 57" fill="none" xmlns="http://www.w3.org/2000/svg">
<g clip-path="url(#clip0_121_849)">
<path d="M57.8501 46.0502C54.2401 47.7802 50.1601 49.7402 44.4601 51.9902C34.9001 55.7802 27.6101 56.0802 22.7901 52.8702C18.2101 49.8202 17.1301 44.3102 16.8701 42.1302C29.8901 40.1502 50.0001 38.2502 69.9201 40.9202C65.3501 42.4602 61.8001 44.1602 57.8401 46.0502H57.8501Z" fill="#82C341"/>
<path d="M23.8298 7.47998L17.7998 16.83H24.2298L20.1798 24.23H21.1098L29.5398 14.49H22.5998L29.1998 7.47998H23.8298Z" fill="#82C341"/>
<path d="M72.87 41.31C72.91 41.19 72.93 41.07 72.92 40.95C72.86 39.89 71.49 39.91 70.73 39.79C69.6 39.61 68.46 39.45 67.33 39.3V23.49C67.33 22.94 66.88 22.49 66.33 22.49H57.29C56.74 22.49 56.29 22.94 56.29 23.49V38.3C55.29 38.25 54.3 38.21 53.3 38.17V16C53.3 15.45 52.85 15 52.3 15H47.32V1C47.32 0.45 46.87 0 46.32 0H1C0.45 0 0 0.45 0 1V31C0 31.55 0.45 32 1 32H18.5V40.33C9.51 41.65 3.73 43.07 3.59 43.11C3.05 43.24 2.73 43.79 2.86 44.32C2.97 44.77 3.38 45.08 3.83 45.08C3.91 45.08 3.99 45.08 4.07 45.05C4.19 45.02 8.59 43.94 15.65 42.79C15.93 45.22 17.11 50.91 22.06 54.21C24.46 55.81 27.39 56.61 30.82 56.61C34.67 56.61 39.16 55.6 44.26 53.58C49.67 51.44 53.53 49.58 56.95 47.95C59.33 46.81 61.71 45.67 64.16 44.67C65.44 44.15 66.73 43.67 68.04 43.23C68.76 42.99 69.48 42.76 70.2 42.54C70.58 42.42 70.97 42.31 71.35 42.2C71.69 42.1 72.09 42.05 72.4 41.88C72.62 41.76 72.79 41.55 72.87 41.31ZM58.29 24.5H65.33V39.06C62.98 38.79 60.63 38.58 58.29 38.43V24.5ZM51.3 38.14C46.22 38.04 41.28 38.17 36.62 38.45V17H51.3V38.14ZM34.62 32V38.58C32.63 38.72 30.69 38.88 28.82 39.07V32.01H34.62V32ZM2 2H45.33V15H35.63C35.08 15 34.63 15.45 34.63 16V30H2V2ZM20.5 32H26.83V39.27C24.6 39.51 22.48 39.77 20.5 40.04V32ZM56.08 46.15C52.7 47.77 48.86 49.61 43.52 51.72C34.54 55.28 27.7 55.55 23.18 52.55C18.88 49.69 17.87 44.52 17.63 42.47C20.43 42.04 23.57 41.62 26.99 41.26C27.99 42.72 31.39 47.17 36.86 49.14C36.97 49.18 37.09 49.2 37.2 49.2C37.61 49.2 37.99 48.95 38.14 48.54C38.33 48.02 38.06 47.45 37.54 47.26C33.52 45.81 30.68 42.76 29.31 41.03C33.45 40.63 37.94 40.32 42.63 40.18C43.41 40.96 46.21 43.55 49.84 44.46C49.92 44.48 50 44.49 50.08 44.49C50.53 44.49 50.94 44.19 51.05 43.73C51.18 43.19 50.86 42.65 50.32 42.52C48.43 42.05 46.77 41.01 45.6 40.12C52.62 40.03 60.02 40.35 67.4 41.34C63.11 42.79 59.78 44.38 56.07 46.16L56.08 46.15Z" fill="#231F20"/>
<path d="M44.0801 21.48L40.1201 27.62H44.3401L41.6801 32.48H42.2901L47.8201 26.09H43.2701L47.6001 21.48H44.0801Z" fill="#82C341"/>
<path d="M61.6999 27.5698L59.1699 31.4798H61.8599L60.1699 34.5698H60.5599L64.0799 30.4998H61.1799L63.9399 27.5698H61.6999Z" fill="#82C341"/>
</g>
<defs>
<clipPath id="clip0_121_849">
<rect width="72.93" height="56.61" fill="white"/>
</clipPath>
</defs>
</svg>
