<svg width="34" height="35" viewBox="0 0 34 35" fill="none" xmlns="http://www.w3.org/2000/svg">
<rect width="34" height="35" fill="#4C4D50"/>
<path d="M-20878 -7088C-20878 -7089.1 -20877.1 -7090 -20876 -7090H25845C25846.1 -7090 25847 -7089.1 25847 -7088V4577C25847 4578.1 25846.1 4579 25845 4579H-20876C-20877.1 4579 -20878 4578.1 -20878 4577V-7088Z" fill="#404040"/>
<path d="M-20876 -7089H25845V-7091H-20876V-7089ZM25846 -7088V4577H25848V-7088H25846ZM25845 4578H-20876V4580H25845V4578ZM-20877 4577V-7088H-20879V4577H-20877ZM-20876 4578C-20876.6 4578 -20877 4577.55 -20877 4577H-20879C-20879 4578.66 -20877.7 4580 -20876 4580V4578ZM25846 4577C25846 4577.55 25845.6 4578 25845 4578V4580C25846.7 4580 25848 4578.66 25848 4577H25846ZM25845 -7089C25845.6 -7089 25846 -7088.55 25846 -7088H25848C25848 -7089.66 25846.7 -7091 25845 -7091V-7089ZM-20876 -7091C-20877.7 -7091 -20879 -7089.66 -20879 -7088H-20877C-20877 -7088.55 -20876.6 -7089 -20876 -7089V-7091Z" fill="white" fill-opacity="0.1"/>
<g clip-path="url(#clip0_14294_1185)">
<rect width="1280" height="5253" transform="translate(-140 -1326)" fill="white"/>
<rect x="-140" y="-646" width="1280" height="1768" fill="white"/>
<circle cx="17" cy="17.5" r="17" fill="#E6E6E6"/>
<path d="M15.08 7.23917L10.09 9.17311C8.94 9.61545 8 11.0145 8 12.2695V19.9127C8 21.1265 8.78 22.721 9.73 23.4514L14.03 26.7535C15.44 27.8439 17.76 27.8439 19.17 26.7535L23.47 23.4514C24.42 22.721 25.2 21.1265 25.2 19.9127V12.2695C25.2 11.0042 24.26 9.60516 23.11 9.16282L18.12 7.23917C17.27 6.92028 15.91 6.92028 15.08 7.23917Z" stroke="#292D32" stroke-width="1.5" stroke-linecap="round" stroke-linejoin="round"/>
<path d="M13.6396 17.1549L15.2496 18.8111L19.5496 14.3877" stroke="#292D32" stroke-width="1.5" stroke-linecap="round" stroke-linejoin="round"/>
</g>
<defs>
<clipPath id="clip0_14294_1185">
<rect width="1280" height="5253" fill="white" transform="translate(-140 -1326)"/>
</clipPath>
</defs>
</svg>
