<svg width="55" height="51" viewBox="0 0 55 51" fill="none" xmlns="http://www.w3.org/2000/svg">
<path d="M15.9546 24C16.792 21.1753 18.9882 21.6087 18.9882 21.6087C18.9882 21.6087 19.3314 15.8212 16.315 16.0043C16.315 16.0043 13 18.2236 13 23.873" fill="white"/>
<path d="M15.9546 24C16.792 21.1753 18.9882 21.6087 18.9882 21.6087C18.9882 21.6087 19.3314 15.8212 16.315 16.0043C16.315 16.0043 13 18.2236 13 23.873" stroke="#36A73A" stroke-width="2" stroke-linecap="round" stroke-linejoin="round"/>
<path d="M16 17.802C16.1194 17.1244 16.41 16.5028 16.835 16.0156C17.26 15.5285 17.8004 15.1977 18.3881 15.065C18.9757 14.9323 19.5842 15.0037 20.1368 15.27C20.6894 15.5364 21.1612 15.9859 21.4928 16.5617C21.8244 17.1375 22.0009 17.8139 22 18.5054C21.9991 19.197 21.8208 19.8727 21.4876 20.4473C21.1545 21.022 20.6814 21.4697 20.1281 21.7341C19.5749 21.9985 18.9662 22.0677 18.3789 21.9329" fill="white"/>
<path d="M16 17.802C16.1194 17.1244 16.41 16.5028 16.835 16.0156C17.26 15.5285 17.8004 15.1977 18.3881 15.065C18.9757 14.9323 19.5842 15.0037 20.1368 15.27C20.6894 15.5364 21.1612 15.9859 21.4928 16.5617C21.8244 17.1375 22.0009 17.8139 22 18.5054C21.9991 19.197 21.8208 19.8727 21.4876 20.4473C21.1545 21.022 20.6814 21.4697 20.1281 21.7341C19.5749 21.9985 18.9662 22.0677 18.3789 21.9329" stroke="#36A73A" stroke-width="2" stroke-linecap="round" stroke-linejoin="round"/>
<path d="M1 50H8.00467L11.2802 27.5731C11.2815 27.3652 11.3227 27.1596 11.4016 26.968C11.4804 26.7764 11.5953 26.6026 11.7396 26.4565C11.8839 26.3104 12.0549 26.1949 12.2428 26.1166C12.4307 26.0383 12.6317 25.9987 12.8346 26L22.2708 26.0718C22.4732 26.0732 22.6734 26.1154 22.8598 26.196C23.0463 26.2767 23.2154 26.3942 23.3576 26.5418C23.4998 26.6895 23.6122 26.8644 23.6884 27.0566C23.7646 27.2488 23.8032 27.4546 23.8019 27.662L26 48.0439" stroke="#36A73A" stroke-width="2" stroke-linecap="round" stroke-linejoin="round"/>
<path d="M29.4318 19C30.6907 15.4668 33.9803 16.0245 33.9803 16.0245C33.9803 16.0245 34.5188 8.78376 29.9704 9.00497C29.9704 9.00497 25 11.7841 25 18.8536" fill="white"/>
<path d="M29.4318 19C30.6907 15.4668 33.9803 16.0245 33.9803 16.0245C33.9803 16.0245 34.5188 8.78376 29.9704 9.00497C29.9704 9.00497 25 11.7841 25 18.8536" stroke="#36A73A" stroke-width="2" stroke-linecap="round" stroke-linejoin="round"/>
<path d="M10 49.8439H18.7216L22.8 22.886C22.8045 22.382 23.0113 21.9003 23.375 21.5467C23.7387 21.1931 24.2297 20.9965 24.74 21L36.5079 21.0864C36.7604 21.0881 37.0102 21.139 37.2428 21.236C37.4755 21.3331 37.6865 21.4744 37.8639 21.652C38.0412 21.8296 38.1814 22.04 38.2764 22.2711C38.3714 22.5022 38.4194 22.7495 38.4176 22.9989L42.0421 50H48" fill="white"/>
<path d="M10 49.8439H18.7216L22.8 22.886C22.8045 22.382 23.0113 21.9003 23.375 21.5467C23.7387 21.1931 24.2297 20.9965 24.74 21L36.5079 21.0864C36.7604 21.0881 37.0102 21.139 37.2428 21.236C37.4755 21.3331 37.6865 21.4744 37.8639 21.652C38.0412 21.8296 38.1814 22.04 38.2764 22.2711C38.3714 22.5022 38.4194 22.7495 38.4176 22.9989L42.0421 50H48" stroke="#36A73A" stroke-width="2" stroke-linecap="round" stroke-linejoin="round"/>
<path d="M29 9.4249C29.2147 8.35801 29.7441 7.37814 30.5212 6.60923C31.2983 5.84031 32.2881 5.31689 33.3656 5.10517C34.4431 4.89345 35.5597 5.00293 36.5744 5.41977C37.589 5.83661 38.456 6.54208 39.0658 7.44696C39.6756 8.35185 40.0007 9.41549 40 10.5034C39.9993 11.5912 39.6729 12.6545 39.062 13.5586C38.4511 14.4628 37.5832 15.1672 36.5681 15.5828C35.5529 15.9984 34.4361 16.1065 33.3589 15.8935" fill="white"/>
<path d="M29 9.4249C29.2147 8.35801 29.7441 7.37814 30.5212 6.60923C31.2983 5.84031 32.2881 5.31689 33.3656 5.10517C34.4431 4.89345 35.5597 5.00293 36.5744 5.41977C37.589 5.83661 38.456 6.54208 39.0658 7.44696C39.6756 8.35185 40.0007 9.41549 40 10.5034C39.9993 11.5912 39.6729 12.6545 39.062 13.5586C38.4511 14.4628 37.5832 15.1672 36.5681 15.5828C35.5529 15.9984 34.4361 16.1065 33.3589 15.8935" stroke="#36A73A" stroke-width="2" stroke-linecap="round" stroke-linejoin="round"/>
<path d="M35 7.5C35 6.41206 35.352 5.34856 36.0114 4.44402C36.6709 3.53947 37.6082 2.83453 38.7047 2.41834C39.8013 2.00216 41.0079 1.89344 42.1719 2.10593C43.3359 2.31842 44.405 2.84258 45.2439 3.6121C46.0829 4.38162 46.6541 5.36194 46.8852 6.42906C47.1163 7.49618 46.9969 8.60215 46.5422 9.60708C46.0875 10.612 45.3179 11.4708 44.3308 12.0747C43.3436 12.6787 42.1832 13.0007 40.9963 13" fill="white"/>
<path d="M35 7.5C35 6.41206 35.352 5.34856 36.0114 4.44402C36.6709 3.53947 37.6082 2.83453 38.7047 2.41834C39.8013 2.00216 41.0079 1.89344 42.1719 2.10593C43.3359 2.31842 44.405 2.84258 45.2439 3.6121C46.0829 4.38162 46.6541 5.36194 46.8852 6.42906C47.1163 7.49618 46.9969 8.60215 46.5422 9.60708C46.0875 10.612 45.3179 11.4708 44.3308 12.0747C43.3436 12.6787 42.1832 13.0007 40.9963 13" stroke="#36A73A" stroke-width="2" stroke-linecap="round" stroke-linejoin="round"/>
<path d="M43.4966 6C44.5846 5.99934 45.6483 6.32134 46.5532 6.92529C47.4581 7.52923 48.1636 8.38798 48.5804 9.39292C48.9972 10.3979 49.1066 11.5038 48.8947 12.5709C48.6829 13.6381 48.1593 14.6184 47.3903 15.3879C46.6212 16.1574 45.6412 16.6816 44.5742 16.8941C43.5072 17.1066 42.4012 16.9978 41.396 16.5817C40.3908 16.1655 39.5316 15.4605 38.9271 14.556C38.3227 13.6514 38 12.5879 38 11.5" fill="white"/>
<path d="M43.4966 6C44.5846 5.99934 45.6483 6.32134 46.5532 6.92529C47.4581 7.52923 48.1636 8.38798 48.5804 9.39292C48.9972 10.3979 49.1066 11.5038 48.8947 12.5709C48.6829 13.6381 48.1593 14.6184 47.3903 15.3879C46.6212 16.1574 45.6412 16.6816 44.5742 16.8941C43.5072 17.1066 42.4012 16.9978 41.396 16.5817C40.3908 16.1655 39.5316 15.4605 38.9271 14.556C38.3227 13.6514 38 12.5879 38 11.5" stroke="#36A73A" stroke-width="2" stroke-linecap="round" stroke-linejoin="round"/>
<path d="M43 6.5C43 5.4122 43.3226 4.34884 43.9269 3.44437C44.5313 2.5399 45.3902 1.83495 46.3952 1.41866C47.4002 1.00238 48.5061 0.893465 49.573 1.10568C50.6399 1.3179 51.6199 1.84173 52.3891 2.61091C53.1583 3.3801 53.6821 4.36011 53.8943 5.427C54.1065 6.4939 53.9976 7.59977 53.5813 8.60476C53.1651 9.60975 52.4601 10.4687 51.5556 11.0731C50.6512 11.6774 49.5878 12 48.5 12" fill="white"/>
<path d="M43 6.5C43 5.4122 43.3226 4.34884 43.9269 3.44437C44.5313 2.5399 45.3902 1.83495 46.3952 1.41866C47.4002 1.00238 48.5061 0.893465 49.573 1.10568C50.6399 1.3179 51.6199 1.84173 52.3891 2.61091C53.1583 3.3801 53.6821 4.36011 53.8943 5.427C54.1065 6.4939 53.9976 7.59977 53.5813 8.60476C53.1651 9.60975 52.4601 10.4687 51.5556 11.0731C50.6512 11.6774 49.5878 12 48.5 12" stroke="#36A73A" stroke-width="2" stroke-linecap="round" stroke-linejoin="round"/>
<path d="M25.1723 47C15.7724 37.1622 30.2564 34 30.2564 34C30.2564 34 39.0369 45.4347 25.1822 47" fill="white"/>
<path d="M25.1723 47C15.7724 37.1622 30.2564 34 30.2564 34C30.2564 34 39.0369 45.4347 25.1822 47" stroke="#36A73A" stroke-width="2" stroke-linecap="round" stroke-linejoin="round"/>
<path d="M29 37L25.2454 47.1686C25.2454 47.1686 23.7749 50.8409 19 49.821" stroke="#36A73A" stroke-width="2" stroke-linecap="round" stroke-linejoin="round"/>
</svg>
