<svg width="60" height="73" viewBox="0 0 60 73" fill="none" xmlns="http://www.w3.org/2000/svg">
<path d="M36.7505 60.475C32.7605 60.475 29.5205 57.235 29.5205 53.245V49.315C29.5205 45.325 32.7605 42.085 36.7505 42.085C40.7405 42.085 43.9805 45.325 43.9805 49.315V53.245C43.9805 57.235 40.7405 60.475 36.7505 60.475ZM36.7505 44.085C33.8705 44.085 31.5205 46.425 31.5205 49.315V53.245C31.5205 56.125 33.8705 58.475 36.7505 58.475C39.6305 58.475 41.9805 56.135 41.9805 53.245V49.315C41.9805 46.435 39.6305 44.085 36.7505 44.085Z" fill="#231F20"/>
<path d="M25.7401 60.4747H21.6801C17.3501 60.4747 13.8301 56.9547 13.8301 52.6247V50.2147C13.8301 45.8847 17.3501 42.3647 21.6801 42.3647H25.7401C26.2901 42.3647 26.7401 42.8147 26.7401 43.3647C26.7401 43.9147 26.2901 44.3647 25.7401 44.3647H21.6801C18.4601 44.3647 15.8301 46.9847 15.8301 50.2147V52.6247C15.8301 55.8447 18.4501 58.4747 21.6801 58.4747H25.7401C26.2901 58.4747 26.7401 58.9247 26.7401 59.4747C26.7401 60.0247 26.2901 60.4747 25.7401 60.4747Z" fill="#231F20"/>
<path d="M52.8005 65.1248H47.8105C47.4105 65.1248 47.0405 64.8848 46.8905 64.5148C46.7405 64.1448 46.8205 63.7148 47.1005 63.4248L51.1305 59.3048C51.5605 58.8648 51.8005 58.2848 51.8005 57.6648V56.6748C51.8005 56.1248 51.3505 55.6748 50.8005 55.6748H49.8105C49.2605 55.6748 48.8105 56.1248 48.8105 56.6748V57.3248C48.8105 57.8748 48.3605 58.3248 47.8105 58.3248C47.2605 58.3248 46.8105 57.8748 46.8105 57.3248V56.6748C46.8105 55.0248 48.1605 53.6748 49.8105 53.6748H50.8005C52.4505 53.6748 53.8005 55.0248 53.8005 56.6748V57.6648C53.8005 58.8048 53.3605 59.8848 52.5605 60.7048L50.1905 63.1248H52.8005C53.3505 63.1248 53.8005 63.5748 53.8005 64.1248C53.8005 64.6748 53.3505 65.1248 52.8005 65.1248Z" fill="#231F20"/>
<path d="M43.6393 8.5043C42.6793 8.5743 41.7593 8.7343 40.8693 8.9943C38.6693 3.9843 33.5193 0.644302 27.7493 1.0343C20.6493 1.5243 15.2393 7.4743 15.3293 14.5043C14.2193 14.1943 13.0493 14.0543 11.8293 14.1443C6.06926 14.5343 1.71926 19.5343 2.10926 25.2943C2.44926 30.2943 6.25926 33.8443 11.0293 34.8543C11.7493 35.0043 13.2593 35.1343 13.2593 35.1343H45.4593C45.4593 35.1343 46.4493 35.0343 46.9393 34.9443C53.5493 33.7243 58.3393 27.7543 57.8693 20.9043C57.3693 13.5443 50.9893 7.9943 43.6393 8.4943V8.5043Z" fill="#82C341"/>
<path d="M13.2695 36.1445C13.1195 36.1445 11.6095 36.0045 10.8295 35.8345C5.28948 34.6545 1.46948 30.5445 1.11948 25.3645C0.909481 22.3145 1.89948 19.3645 3.90948 17.0545C5.91948 14.7445 8.70948 13.3645 11.7595 13.1545C12.6195 13.0945 13.4995 13.1345 14.3695 13.2845C14.8895 6.23448 20.5195 0.52448 27.6895 0.0344803C33.4095 -0.36552 38.8295 2.74448 41.4295 7.81448C42.1395 7.65448 42.8595 7.55448 43.5795 7.50448C47.3995 7.24448 51.0995 8.48448 53.9895 11.0045C56.8795 13.5245 58.6095 17.0145 58.8795 20.8445C59.3795 28.1245 54.3295 34.6145 47.1295 35.9345C46.6195 36.0245 45.5695 36.1345 45.5695 36.1345H13.2695V36.1445ZM12.5295 15.1245C12.3195 15.1245 12.1095 15.1245 11.9095 15.1445C9.38948 15.3145 7.08948 16.4645 5.42948 18.3645C3.76948 20.2645 2.94948 22.7045 3.11948 25.2245C3.40948 29.4945 6.59948 32.8845 11.2495 33.8745C11.7895 33.9945 12.9495 34.1045 13.3595 34.1445H45.4695C45.4695 34.1445 46.3395 34.0445 46.7695 33.9645C52.9695 32.8245 57.3095 27.2345 56.8795 20.9745C56.4095 14.1845 50.4995 9.03448 43.7095 9.49448C42.8595 9.55448 41.9895 9.70448 41.1495 9.94448C40.6695 10.0845 40.1595 9.84448 39.9595 9.38448C37.8695 4.62448 32.9895 1.67448 27.8195 2.02448C21.2995 2.47448 16.2495 7.94448 16.3295 14.4845C16.3295 14.7945 16.1895 15.0945 15.9395 15.2845C15.6895 15.4745 15.3695 15.5445 15.0595 15.4545C14.2195 15.2245 13.3695 15.1045 12.5195 15.1045L12.5295 15.1245Z" fill="#231F20"/>
<path d="M43.6391 20.6343C42.0291 20.6343 40.6891 21.7143 40.2491 23.1843H34.6591C34.1991 21.0343 32.2891 19.4243 30.0091 19.4243C27.7291 19.4243 25.8191 21.0443 25.3591 23.1843H19.7691C19.3291 21.7143 17.9891 20.6343 16.3791 20.6343C14.4191 20.6343 12.8291 22.2243 12.8291 24.1843C12.8291 26.1443 14.4191 27.7343 16.3791 27.7343C17.9891 27.7343 19.3291 26.6543 19.7691 25.1843H25.3591C25.8191 27.3343 27.7291 28.9443 30.0091 28.9443C32.2891 28.9443 34.1991 27.3243 34.6591 25.1843H40.2491C40.6791 26.6543 42.0291 27.7343 43.6391 27.7343C45.5991 27.7343 47.1891 26.1443 47.1891 24.1843C47.1891 22.2243 45.5991 20.6343 43.6391 20.6343ZM16.3691 25.7343C15.5191 25.7343 14.8191 25.0343 14.8191 24.1843C14.8191 23.3343 15.5191 22.6343 16.3691 22.6343C17.2191 22.6343 17.9191 23.3243 17.9191 24.1843C17.9191 25.0443 17.2191 25.7343 16.3691 25.7343ZM30.0091 26.9443C28.4891 26.9443 27.2491 25.7043 27.2491 24.1843C27.2491 22.6643 28.4891 21.4243 30.0091 21.4243C31.5291 21.4243 32.7691 22.6643 32.7691 24.1843C32.7691 25.7043 31.5291 26.9443 30.0091 26.9443ZM43.6491 25.7343C42.7991 25.7343 42.0991 25.0343 42.0991 24.1843C42.0991 23.3343 42.7891 22.6343 43.6491 22.6343C44.5091 22.6343 45.1991 23.3243 45.1991 24.1843C45.1991 25.0443 44.4991 25.7343 43.6491 25.7343Z" fill="#231F20"/>
<path d="M59 72.3047H1C0.45 72.3047 0 71.8547 0 71.3047C0 70.7547 0.45 70.3047 1 70.3047H59C59.55 70.3047 60 70.7547 60 71.3047C60 71.8547 59.55 72.3047 59 72.3047Z" fill="#231F20"/>
</svg>
