<svg width="54" height="46" viewBox="0 0 54 46" fill="none" xmlns="http://www.w3.org/2000/svg">
<path d="M27 23C9 13.3517 27 1 27 1C27 1 45 13.3517 27 23Z" fill="white" stroke="#36A73A" stroke-width="1.5" stroke-linecap="round" stroke-linejoin="round"/>
<path d="M27 7V36" stroke="#36A73A" stroke-width="1.5" stroke-linecap="round" stroke-linejoin="round"/>
<path d="M27 12.9943C27 12.9943 23.6526 13.2697 22 10" stroke="#36A73A" stroke-width="1.5" stroke-linecap="round" stroke-linejoin="round"/>
<path d="M27 12.9943C27 12.9943 29.6901 13.2697 31 10" stroke="#36A73A" stroke-width="1.5" stroke-linecap="round" stroke-linejoin="round"/>
<path d="M27 17.9924C27 17.9924 22.9652 18.3592 21 14" stroke="#36A73A" stroke-width="1.5" stroke-linecap="round" stroke-linejoin="round"/>
<path d="M27 17.9924C27 17.9924 31.0326 18.3592 33 14" stroke="#36A73A" stroke-width="1.5" stroke-linecap="round" stroke-linejoin="round"/>
<path d="M16.826 25.8939C-3.06293 31.912 1.43666 11.4111 1.43666 11.4111C1.43666 11.4111 23.2162 7.1757 16.826 25.8939Z" fill="white" stroke="#36A73A" stroke-width="1.5" stroke-linecap="round" stroke-linejoin="round"/>
<path d="M6 15L27 36" stroke="#36A73A" stroke-width="1.5" stroke-linecap="round" stroke-linejoin="round"/>
<path d="M10 19C10 19 7.86984 22.3968 4 20.3368" stroke="#36A73A" stroke-width="1.5" stroke-linecap="round" stroke-linejoin="round"/>
<path d="M10 19C10 19 11.7002 17.2267 10.6668 14" stroke="#36A73A" stroke-width="1.5" stroke-linecap="round" stroke-linejoin="round"/>
<path d="M13 23C13 23 10.5103 24.7003 6 23.6667" stroke="#36A73A" stroke-width="1.5" stroke-linecap="round" stroke-linejoin="round"/>
<path d="M13 23C13 23 16.3979 20.1619 14.3358 15" stroke="#36A73A" stroke-width="1.5" stroke-linecap="round" stroke-linejoin="round"/>
<path d="M37.1724 25.8258C57.0595 32.217 52.5643 10.4341 52.5643 10.4341C52.5643 10.4341 30.7872 5.9469 37.1724 25.8258Z" fill="white" stroke="#36A73A" stroke-width="1.5" stroke-linecap="round" stroke-linejoin="round"/>
<path d="M48 15L27 35" stroke="#36A73A" stroke-width="1.5" stroke-linecap="round" stroke-linejoin="round"/>
<path d="M43 19C43 19 45.1302 20.7002 49 19.6668" stroke="#36A73A" stroke-width="1.5" stroke-linecap="round" stroke-linejoin="round"/>
<path d="M43 19C43 19 43 17.2249 43 14" stroke="#36A73A" stroke-width="1.5" stroke-linecap="round" stroke-linejoin="round"/>
<path d="M40 23C40 23 42.4854 24.7003 47 23.6667" stroke="#36A73A" stroke-width="1.5" stroke-linecap="round" stroke-linejoin="round"/>
<path d="M40 23C40 23 38.2997 20.1619 39.3333 15" stroke="#36A73A" stroke-width="1.5" stroke-linecap="round" stroke-linejoin="round"/>
<path d="M42 45C42 44.9161 42 44.8355 42 44.7549C42 40.8416 40.4196 37.0887 37.6066 34.3216C34.7936 31.5545 30.9782 30 27 30C23.0218 30 19.2064 31.5545 16.3934 34.3216C13.5804 37.0887 12 40.8416 12 44.7549C12 44.8355 12 44.9161 12 45" fill="white"/>
<path d="M42 45C42 44.9161 42 44.8355 42 44.7549C42 40.8416 40.4196 37.0887 37.6066 34.3216C34.7936 31.5545 30.9782 30 27 30C23.0218 30 19.2064 31.5545 16.3934 34.3216C13.5804 37.0887 12 40.8416 12 44.7549C12 44.8355 12 44.9161 12 45" stroke="#36A73A" stroke-width="1.5" stroke-linecap="round" stroke-linejoin="round"/>
</svg>
