<svg width="67" height="65" viewBox="0 0 67 65" fill="none" xmlns="http://www.w3.org/2000/svg">
<path d="M31.9945 19.6143L22.0654 34.8362H31.0496L24.5157 47.0313C24.1714 47.6799 25.0602 48.2644 25.5166 47.6959L38.4644 31.5772H28.7756L39.4813 19.6143H31.9865H31.9945Z" fill="#82C341"/>
<path d="M25.0606 48.7286C24.7964 48.7286 24.5241 48.6485 24.2759 48.4884C23.6593 48.08 23.4591 47.3113 23.8115 46.6547L29.7128 35.6366H22.0659C21.7696 35.6366 21.5054 35.4765 21.3612 35.2203C21.2251 34.964 21.2331 34.6437 21.3932 34.4035L31.3223 19.1816C31.4664 18.9574 31.7227 18.8213 31.9949 18.8213H39.4898C39.8021 18.8213 40.0903 19.0055 40.2184 19.2937C40.3466 19.582 40.2905 19.9183 40.0823 20.1585L30.5696 30.7842H38.4648C38.7691 30.7842 39.0574 30.9604 39.1855 31.2406C39.3216 31.5209 39.2816 31.8492 39.0894 32.0894L26.1416 48.2081C25.8613 48.5605 25.461 48.7366 25.0606 48.7366V48.7286ZM23.5472 34.0352H31.0501C31.3303 34.0352 31.5946 34.1793 31.7387 34.4275C31.8828 34.6678 31.8908 34.972 31.7547 35.2203L26.2297 45.5337L36.7993 32.3777H28.776C28.4637 32.3777 28.1754 32.1935 28.0473 31.9052C27.9192 31.617 27.9753 31.2807 28.1835 31.0404L37.6961 20.4147H32.4273L23.5472 34.0352Z" fill="#231F20"/>
<path d="M7.01216 17.0762C8.73373 14.658 10.7756 12.5521 13.0737 10.7905C13.9065 11.5832 15.6761 12.5441 19.3354 12.5441C24.7724 12.5441 33.8447 4.98516 34.229 4.66487C34.3972 4.52074 34.5013 4.31254 34.5173 4.08834C34.5253 3.86414 34.4452 3.64794 34.2851 3.48779C34.1089 3.31163 29.881 -0.804129 20.6566 0.140734C17.5978 0.461026 15.0995 1.73419 13.6262 3.73602C12.4331 5.3535 11.9767 7.33931 12.297 9.37317C9.7987 11.2549 7.57267 13.529 5.70696 16.1474C1.46309 22.1208 -0.522728 29.4235 0.117857 36.7021C0.157894 37.1185 0.502208 37.4308 0.918588 37.4308C0.94261 37.4308 0.966632 37.4308 0.990654 37.4308C1.43106 37.3908 1.75936 37.0064 1.71932 36.566C1.11076 29.6637 2.99248 22.7454 7.02016 17.0842L7.01216 17.0762ZM14.9154 4.68088C16.1325 3.02337 18.1744 2.00644 20.8168 1.73419C27.1826 1.06958 30.954 3.04739 32.4274 4.06432C30.1533 5.86596 23.3471 10.9506 19.3354 10.9506C16.4688 10.9506 15.0675 10.318 14.4109 9.82958C17.7339 7.57152 21.5214 6.00209 25.5811 5.26542C26.0135 5.18534 26.3018 4.76896 26.2217 4.33657C26.1416 3.90417 25.7253 3.6079 25.2929 3.69598C21.1291 4.45668 17.2375 6.04212 13.7944 8.3162C13.7543 7.003 14.1387 5.73785 14.9074 4.68889L14.9154 4.68088Z" fill="#231F20"/>
<path d="M47.6011 58.1136C41.924 62.0932 34.9976 63.9189 28.0793 63.2623C25.1246 62.982 22.274 62.2613 19.6076 61.1563C19.8718 60.0353 19.8318 58.0255 17.9981 54.8546C15.2836 50.1463 4.20149 46.0706 3.72906 45.8944C3.51287 45.8143 3.28065 45.8303 3.08848 45.9344C2.88829 46.0385 2.74416 46.2227 2.68811 46.4389C2.62405 46.6791 1.16672 52.4123 6.60369 59.9152C8.40533 62.4055 10.7595 63.9349 13.2257 64.2071C13.506 64.2391 13.7782 64.2552 14.0505 64.2552C15.756 64.2552 17.3975 63.6546 18.7748 62.5416C21.6574 63.7667 24.7322 64.5594 27.9352 64.8637C28.9041 64.9598 29.881 64.9998 30.8498 64.9998C37.1516 64.9998 43.3412 63.0621 48.53 59.4268C48.8903 59.1705 48.9784 58.6741 48.7222 58.3137C48.4659 57.9534 47.9695 57.8653 47.6091 58.1216L47.6011 58.1136ZM13.3939 62.6137C11.352 62.3815 9.44629 61.1243 7.88486 58.9703C4.12943 53.7896 3.95327 49.5297 4.0974 47.7521C6.79586 48.8251 14.595 52.1721 16.6048 55.6473C18.0381 58.1296 18.1903 59.659 18.0942 60.4677C14.4749 58.7141 11.2319 56.2238 8.55747 53.077C8.26921 52.7406 7.76475 52.7006 7.42844 52.9809C7.09213 53.2691 7.0521 53.7736 7.33235 54.1099C10.0709 57.3368 13.3939 59.9152 17.0853 61.7569C15.9642 62.4455 14.6831 62.7498 13.3859 62.6057L13.3939 62.6137Z" fill="#231F20"/>
<path d="M65.4334 34.0667C64.6327 32.225 63.1353 30.8317 61.2136 30.0951C60.8292 26.9882 59.9805 23.9294 58.6432 21.0068C55.5924 14.3447 50.2676 8.97177 43.6375 5.88896C43.2372 5.70479 42.7567 5.87294 42.5726 6.27331C42.3884 6.67367 42.5565 7.15411 42.9569 7.33828C49.2426 10.261 54.2873 15.3536 57.1779 21.6714C58.411 24.3698 59.2118 27.1964 59.5881 30.063C58.4831 30.3913 56.7695 31.4323 54.9358 34.6112C52.2214 39.3195 54.2312 50.9541 54.3113 51.4506C54.3513 51.6748 54.4794 51.867 54.6716 51.9871C54.7997 52.0671 54.9519 52.1152 55.104 52.1152C55.1761 52.1152 55.2401 52.1072 55.3122 52.0912C55.5524 52.0271 61.2456 50.4256 65.0251 41.9619C66.2822 39.1513 66.4263 36.3568 65.4334 34.0827V34.0667ZM63.5677 41.2973C60.9573 47.1346 57.3621 49.4167 55.7446 50.1854C55.3282 47.3108 54.3193 38.8871 56.3291 35.4039C57.7624 32.9216 59.0116 32.0248 59.7643 31.7045C60.0605 35.7162 59.524 39.7679 58.1308 43.6595C57.9786 44.0758 58.1948 44.5323 58.6112 44.6844C58.6993 44.7164 58.7874 44.7324 58.8835 44.7324C59.2118 44.7324 59.516 44.5323 59.6361 44.204C61.0614 40.2163 61.638 36.0525 61.3817 31.9368C62.5428 32.5613 63.4396 33.5222 63.9681 34.7153C64.7929 36.597 64.6567 38.8791 63.5677 41.3053V41.2973Z" fill="#231F20"/>
</svg>
