<svg width="34" height="34" viewBox="0 0 34 34" fill="none" xmlns="http://www.w3.org/2000/svg">
<rect width="34" height="34" fill="#4C4D50"/>
<path d="M-20878 -6633C-20878 -6634.1 -20877.1 -6635 -20876 -6635H25845C25846.1 -6635 25847 -6634.1 25847 -6633V5032C25847 5033.1 25846.1 5034 25845 5034H-20876C-20877.1 5034 -20878 5033.1 -20878 5032V-6633Z" fill="#404040"/>
<path d="M-20876 -6634H25845V-6636H-20876V-6634ZM25846 -6633V5032H25848V-6633H25846ZM25845 5033H-20876V5035H25845V5033ZM-20877 5032V-6633H-20879V5032H-20877ZM-20876 5033C-20876.6 5033 -20877 5032.55 -20877 5032H-20879C-20879 5033.66 -20877.7 5035 -20876 5035V5033ZM25846 5032C25846 5032.55 25845.6 5033 25845 5033V5035C25846.7 5035 25848 5033.66 25848 5032H25846ZM25845 -6634C25845.6 -6634 25846 -6633.55 25846 -6633H25848C25848 -6634.66 25846.7 -6636 25845 -6636V-6634ZM-20876 -6636C-20877.7 -6636 -20879 -6634.66 -20879 -6633H-20877C-20877 -6633.55 -20876.6 -6634 -20876 -6634V-6636Z" fill="white" fill-opacity="0.1"/>
<g clip-path="url(#clip0_14294_1185)">
<rect width="1280" height="5253" transform="translate(-140 -871)" fill="white"/>
<rect x="-140" y="-191" width="1280" height="1768" fill="white"/>
<circle cx="17" cy="17" r="17" fill="#E6E6E6"/>
<path d="M16.8897 13.0635L15.8197 14.9768C15.5797 15.3986 15.7797 15.7484 16.2497 15.7484H17.5197C17.9997 15.7484 18.1897 16.0981 17.9497 16.5199L16.8897 18.4333" stroke="#292D32" stroke-width="1.5" stroke-linecap="round" stroke-linejoin="round"/>
<path d="M13.19 23.5044V22.3111C10.89 20.8812 9 18.0935 9 15.1309C9 10.0388 13.55 6.04752 18.69 7.19965C20.95 7.714 22.93 9.25703 23.96 11.3864C26.05 15.7069 23.85 20.2949 20.62 22.3008V23.4941C20.62 23.7924 20.73 24.4816 19.66 24.4816H14.15C13.05 24.4919 13.19 24.0496 13.19 23.5044Z" stroke="#292D32" stroke-width="1.5" stroke-linecap="round" stroke-linejoin="round"/>
<path d="M13.3896 27.5764C15.6796 26.9088 18.0996 26.9088 20.3896 27.5764" stroke="#292D32" stroke-width="1.5" stroke-linecap="round" stroke-linejoin="round"/>
</g>
<defs>
<clipPath id="clip0_14294_1185">
<rect width="1280" height="5253" fill="white" transform="translate(-140 -871)"/>
</clipPath>
</defs>
</svg>
