<svg width="71" height="69" viewBox="0 0 71 69" fill="none" xmlns="http://www.w3.org/2000/svg">
<path d="M54.939 57.4095C51.329 59.1395 47.249 61.0995 41.549 63.3495C31.989 67.1395 24.699 67.4395 19.879 64.2295C15.299 61.1795 14.219 55.6695 13.959 53.4895C26.979 51.5095 47.089 49.6095 67.009 52.2795C62.439 53.8195 58.889 55.5195 54.929 57.4095H54.939Z" fill="#82C341"/>
<path d="M22.4287 21.6698C21.8787 21.6698 21.4287 21.2198 21.4287 20.6698V16.5898C21.4287 16.0398 21.8787 15.5898 22.4287 15.5898C22.9787 15.5898 23.4287 16.0398 23.4287 16.5898V20.6698C23.4287 21.2198 22.9787 21.6698 22.4287 21.6698Z" fill="#82C341"/>
<path d="M27.5791 21.6698C27.0291 21.6698 26.5791 21.2198 26.5791 20.6698V16.5898C26.5791 16.0398 27.0291 15.5898 27.5791 15.5898C28.1291 15.5898 28.5791 16.0398 28.5791 16.5898V20.6698C28.5791 21.2198 28.1291 21.6698 27.5791 21.6698Z" fill="#82C341"/>
<path d="M22.4287 30.8998C21.8787 30.8998 21.4287 30.4498 21.4287 29.8998V25.8198C21.4287 25.2698 21.8787 24.8198 22.4287 24.8198C22.9787 24.8198 23.4287 25.2698 23.4287 25.8198V29.8998C23.4287 30.4498 22.9787 30.8998 22.4287 30.8998Z" fill="#82C341"/>
<path d="M27.5791 30.8998C27.0291 30.8998 26.5791 30.4498 26.5791 29.8998V25.8198C26.5791 25.2698 27.0291 24.8198 27.5791 24.8198C28.1291 24.8198 28.5791 25.2698 28.5791 25.8198V29.8998C28.5791 30.4498 28.1291 30.8998 27.5791 30.8998Z" fill="#82C341"/>
<path d="M22.4287 40.1298C21.8787 40.1298 21.4287 39.6798 21.4287 39.1298V35.0498C21.4287 34.4998 21.8787 34.0498 22.4287 34.0498C22.9787 34.0498 23.4287 34.4998 23.4287 35.0498V39.1298C23.4287 39.6798 22.9787 40.1298 22.4287 40.1298Z" fill="#82C341"/>
<path d="M27.5791 40.1298C27.0291 40.1298 26.5791 39.6798 26.5791 39.1298V35.0498C26.5791 34.4998 27.0291 34.0498 27.5791 34.0498C28.1291 34.0498 28.5791 34.4998 28.5791 35.0498V39.1298C28.5791 39.6798 28.1291 40.1298 27.5791 40.1298Z" fill="#82C341"/>
<path d="M55.9291 42.4302H52.6191C52.0691 42.4302 51.6191 41.9802 51.6191 41.4302C51.6191 40.8802 52.0691 40.4302 52.6191 40.4302H55.9291C56.4791 40.4302 56.9291 40.8802 56.9291 41.4302C56.9291 41.9802 56.4791 42.4302 55.9291 42.4302Z" fill="#82C341"/>
<path d="M55.9291 36.6704H52.6191C52.0691 36.6704 51.6191 36.2204 51.6191 35.6704C51.6191 35.1204 52.0691 34.6704 52.6191 34.6704H55.9291C56.4791 34.6704 56.9291 35.1204 56.9291 35.6704C56.9291 36.2204 56.4791 36.6704 55.9291 36.6704Z" fill="#82C341"/>
<path d="M55.9291 30.9004H52.6191C52.0691 30.9004 51.6191 30.4504 51.6191 29.9004C51.6191 29.3504 52.0691 28.9004 52.6191 28.9004H55.9291C56.4791 28.9004 56.9291 29.3504 56.9291 29.9004C56.9291 30.4504 56.4791 30.9004 55.9291 30.9004Z" fill="#82C341"/>
<path d="M42.9193 12.5703H37.0693C36.5193 12.5703 36.0693 12.1203 36.0693 11.5703C36.0693 11.0203 36.5193 10.5703 37.0693 10.5703H42.9193C43.4693 10.5703 43.9193 11.0203 43.9193 11.5703C43.9193 12.1203 43.4693 12.5703 42.9193 12.5703Z" fill="#82C341"/>
<path d="M42.9193 18.6001H37.0693C36.5193 18.6001 36.0693 18.1501 36.0693 17.6001C36.0693 17.0501 36.5193 16.6001 37.0693 16.6001H42.9193C43.4693 16.6001 43.9193 17.0501 43.9193 17.6001C43.9193 18.1501 43.4693 18.6001 42.9193 18.6001Z" fill="#82C341"/>
<path d="M42.9193 24.6401H37.0693C36.5193 24.6401 36.0693 24.1901 36.0693 23.6401C36.0693 23.0901 36.5193 22.6401 37.0693 22.6401H42.9193C43.4693 22.6401 43.9193 23.0901 43.9193 23.6401C43.9193 24.1901 43.4693 24.6401 42.9193 24.6401Z" fill="#82C341"/>
<path d="M42.9193 30.6802H37.0693C36.5193 30.6802 36.0693 30.2302 36.0693 29.6802C36.0693 29.1302 36.5193 28.6802 37.0693 28.6802H42.9193C43.4693 28.6802 43.9193 29.1302 43.9193 29.6802C43.9193 30.2302 43.4693 30.6802 42.9193 30.6802Z" fill="#82C341"/>
<path d="M42.9193 36.7104H37.0693C36.5193 36.7104 36.0693 36.2604 36.0693 35.7104C36.0693 35.1604 36.5193 34.7104 37.0693 34.7104H42.9193C43.4693 34.7104 43.9193 35.1604 43.9193 35.7104C43.9193 36.2604 43.4693 36.7104 42.9193 36.7104Z" fill="#82C341"/>
<path d="M42.9193 42.7505H37.0693C36.5193 42.7505 36.0693 42.3005 36.0693 41.7505C36.0693 41.2005 36.5193 40.7505 37.0693 40.7505H42.9193C43.4693 40.7505 43.9193 41.2005 43.9193 41.7505C43.9193 42.3005 43.4693 42.7505 42.9193 42.7505Z" fill="#82C341"/>
<path d="M70.0189 52.86C70.0489 52.77 70.0689 52.66 70.0689 52.54C70.0689 52.2 69.8689 51.88 69.5889 51.7C69.2489 51.48 68.7689 51.48 68.3789 51.42C67.4189 51.26 66.4489 51.12 65.4889 50.98C64.4989 50.84 63.4989 50.72 62.5089 50.6V27.31C62.5089 26.97 62.3389 26.65 62.0489 26.47L48.0689 17.57V6C48.0689 5.45 47.6189 5 47.0689 5H44.7389V1C44.7389 0.45 44.2889 0 43.7389 0H36.2789C35.7289 0 35.2789 0.45 35.2789 1V5H32.9489C32.3989 5 31.9489 5.45 31.9489 6V9.09H17.1089C16.5589 9.09 16.1089 9.54 16.1089 10.09V51.8C15.5389 51.88 14.9789 51.97 14.4389 52.05C14.2089 52.09 13.2189 52.24 13.1089 52.26C5.5989 53.45 0.878901 54.61 0.758901 54.64C0.218901 54.77 -0.101099 55.32 0.0289013 55.85C0.138901 56.3 0.548901 56.61 0.998901 56.61C1.0789 56.61 1.1589 56.61 1.2389 56.58C1.3589 56.55 5.7589 55.47 12.8189 54.32C13.0989 56.75 14.2789 62.44 19.2289 65.75C21.6289 67.35 24.5589 68.15 27.9889 68.15C31.8389 68.15 36.3289 67.14 41.4289 65.12C46.8389 62.98 50.7089 61.12 54.1189 59.49C55.4789 58.84 56.8489 58.18 58.2289 57.56C59.5789 56.94 60.9489 56.35 62.3389 55.81C63.8489 55.22 65.3889 54.69 66.9389 54.21C67.6289 54 68.3089 53.8 69.0089 53.61C69.4489 53.49 69.9089 53.29 70.0589 52.86H70.0189ZM60.4989 27.86V50.38C56.3089 49.96 52.1389 49.73 48.0589 49.66V19.93L60.4989 27.85V27.86ZM33.9289 7H36.2589C36.8089 7 37.2589 6.55 37.2589 6V2H42.7189V6C42.7189 6.55 43.1689 7 43.7189 7H46.0489V49.64C41.8689 49.62 37.7989 49.74 33.9189 49.97V7H33.9289ZM18.0889 11.09H31.9289V50.11C26.8889 50.46 22.1989 50.97 18.0889 51.52V11.09ZM53.2289 57.69C49.8489 59.31 46.0089 61.15 40.6689 63.26C31.6989 66.82 24.8589 67.09 20.3289 64.09C16.0289 61.23 15.0189 56.06 14.7789 54.01C17.5789 53.58 20.7189 53.16 24.1389 52.79C25.1389 54.25 28.5389 58.7 34.0089 60.67C34.1189 60.71 34.2389 60.73 34.3489 60.73C34.7589 60.73 35.1389 60.48 35.2889 60.07C35.4789 59.55 35.2089 58.98 34.6889 58.79C30.6689 57.34 27.8289 54.29 26.4589 52.56C30.5989 52.16 35.0889 51.85 39.7789 51.71C40.5589 52.49 43.3589 55.08 46.9889 55.99C47.0689 56.01 47.1489 56.02 47.2289 56.02C47.6789 56.02 48.0889 55.72 48.1989 55.26C48.3289 54.72 48.0089 54.18 47.4689 54.05C45.5789 53.58 43.9189 52.54 42.7489 51.65C49.7689 51.56 57.1689 51.88 64.5489 52.87C60.2589 54.32 56.9289 55.91 53.2189 57.69H53.2289Z" fill="#231F20"/>
</svg>
