<svg width="50" height="48" viewBox="0 0 50 48" fill="none" xmlns="http://www.w3.org/2000/svg">
<path d="M26.5505 1C20.4072 1.00067 14.5098 3.2008 10.1279 7.12675C5.74593 11.0527 3.2299 16.3905 3.12139 21.9912H1L4.84826 29L8.70299 21.9912H6.11592C6.22427 17.006 8.47209 12.2584 12.3768 8.76756C16.2814 5.27675 21.5316 3.32112 27 3.32056" fill="white"/>
<path d="M26.5505 1C20.4072 1.00067 14.5098 3.2008 10.1279 7.12675C5.74593 11.0527 3.2299 16.3905 3.12139 21.9912H1L4.84826 29L8.70299 21.9912H6.11592C6.22427 17.006 8.47209 12.2584 12.3768 8.76756C16.2814 5.27675 21.5316 3.32112 27 3.32056" stroke="#36A73A" stroke-width="1.8" stroke-linecap="round" stroke-linejoin="round"/>
<path d="M7 34.8231C9.86426 40.4595 14.4901 44.5433 19.8814 46.1952C25.2727 47.847 30.9982 46.9348 35.8249 43.6548L36.813 45.599L41 37.8396L33.2242 38.5315L34.4293 40.8943C30.1288 43.8006 25.034 44.6017 20.2384 43.1258C15.4429 41.6499 11.329 38.0145 8.77975 33" fill="white"/>
<path d="M7 34.8231C9.86426 40.4595 14.4901 44.5433 19.8814 46.1952C25.2727 47.847 30.9982 46.9348 35.8249 43.6548L36.813 45.599L41 37.8396L33.2242 38.5315L34.4293 40.8943C30.1288 43.8006 25.034 44.6017 20.2384 43.1258C15.4429 41.6499 11.329 38.0145 8.77975 33" stroke="#36A73A" stroke-width="1.8" stroke-linecap="round" stroke-linejoin="round"/>
<path d="M45.0524 35C48.3522 30.4354 49.6574 24.8065 48.6867 19.3252C47.7161 13.8439 44.5474 8.94847 39.8627 5.69276L40.9943 4.11516L33 3L36.8694 9.83435L38.2566 7.91722C42.4205 10.8241 45.2334 15.1863 46.0911 20.0669C46.9489 24.9474 45.783 29.957 42.8439 34.0195" fill="white"/>
<path d="M45.0524 35C48.3522 30.4354 49.6574 24.8065 48.6867 19.3252C47.7161 13.8439 44.5474 8.94847 39.8627 5.69277L40.9943 4.11516L33 3L36.8694 9.83435L38.2566 7.91722C42.4205 10.8241 45.2334 15.1863 46.0911 20.0669C46.9489 24.9474 45.783 29.957 42.8439 34.0195" stroke="#36A73A" stroke-width="1.8" stroke-linecap="round" stroke-linejoin="round"/>
</svg>
