<svg width="31" height="45" viewBox="0 0 31 45" fill="none" xmlns="http://www.w3.org/2000/svg">
<path d="M28.2571 43.9892V40.1997L30 27.7924V21.0235L22.855 23.5696H8.21011V25.4697L7.23324 20.2699C6.82755 18.1168 5.12205 16.6715 3.42455 17.0645C1.72705 17.4574 0.683464 19.5325 1.08649 21.6964L2.49573 29.2161C2.54643 29.4915 2.62146 29.7617 2.71993 30.0236C2.90204 30.5263 3.17336 30.9914 3.52063 31.3962C3.58469 31.4661 3.64875 31.5334 3.71547 31.598C5.04998 33.7511 7.31331 37.5918 8.20744 40.2105V44" fill="white"/>
<path d="M28.2571 43.9892V40.1997L30 27.7924V21.0235L22.855 23.5696H8.21011V25.4697L7.23324 20.2699C6.82755 18.1168 5.12205 16.6715 3.42455 17.0645C1.72705 17.4574 0.683464 19.5325 1.08649 21.6964L2.49573 29.2161C2.54643 29.4915 2.62146 29.7617 2.71993 30.0236C2.90204 30.5263 3.17336 30.9914 3.52063 31.3962C3.58469 31.4661 3.64875 31.5334 3.71547 31.598C5.04998 33.7511 7.31331 37.5918 8.20744 40.2105V44" stroke="#36A73A" stroke-width="2" stroke-linecap="round" stroke-linejoin="round"/>
<path d="M8 25V4.98089C8 3.3369 9.1171 2 10.4988 2C11.8805 2 13 3.32366 13 4.98089V25" fill="white"/>
<path d="M8 25V4.98089C8 3.3369 9.1171 2 10.4988 2C11.8805 2 13 3.32366 13 4.98089V25" stroke="#36A73A" stroke-width="2" stroke-linecap="round" stroke-linejoin="round"/>
<path d="M13 26V3.96659C13 2.32785 14.3435 1 15.9985 1C17.6565 1 19 2.31731 19 3.96659V26" fill="white"/>
<path d="M13 26V3.96659C13 2.32785 14.3435 1 15.9985 1C17.6565 1 19 2.31731 19 3.96659V26" stroke="#36A73A" stroke-width="2" stroke-linecap="round" stroke-linejoin="round"/>
<path d="M19 26V7.12069C19 5.39683 20.1195 4 21.5012 4C22.8804 4 24 5.38574 24 7.12069V26" fill="white"/>
<path d="M19 26V7.12069C19 5.39683 20.1195 4 21.5012 4C22.8804 4 24 5.38574 24 7.12069V26" stroke="#36A73A" stroke-width="2" stroke-linecap="round" stroke-linejoin="round"/>
<path d="M24 26V10.0052C24 8.34513 25.3435 7 26.9985 7C28.6565 7 30 8.33446 30 10.0052V26" fill="white"/>
<path d="M24 26V10.0052C24 8.34513 25.3435 7 26.9985 7C28.6565 7 30 8.33446 30 10.0052V26" stroke="#36A73A" stroke-width="2" stroke-linecap="round" stroke-linejoin="round"/>
<path d="M19.3119 36C38.6161 26.2757 19.725 13 19.725 13C19.725 13 0.37208 25.5433 19.3119 36Z" fill="white" stroke="#36A73A" stroke-width="2" stroke-linecap="round" stroke-linejoin="round"/>
<path d="M20.329 19L20 36.3593C20 36.3593 20.0581 42.6959 28 44" stroke="#36A73A" stroke-width="2" stroke-linecap="round" stroke-linejoin="round"/>
<path d="M20 25.9905C20 25.9905 23.313 26.3266 25 23" stroke="#36A73A" stroke-width="2" stroke-linecap="round" stroke-linejoin="round"/>
<path d="M20 25.9968C20 25.9968 16.5851 26.2173 15 23" stroke="#36A73A" stroke-width="2" stroke-linecap="round" stroke-linejoin="round"/>
<path d="M20 30.9836C20 30.9836 23.9754 31.5513 26 26" stroke="#36A73A" stroke-width="2" stroke-linecap="round" stroke-linejoin="round"/>
<path d="M20 30.995C20 30.995 15.2234 31.3532 13 26" stroke="#36A73A" stroke-width="2" stroke-linecap="round" stroke-linejoin="round"/>
</svg>
