<svg width="37" height="52" viewBox="0 0 37 52" fill="none" xmlns="http://www.w3.org/2000/svg">
<rect x="6.9375" y="27.1642" width="23.125" height="10.8657" fill="white"/>
<path d="M18.5 8.53731C19.4147 8.53731 20.3089 8.28696 21.0695 7.81792C21.8301 7.34887 22.4229 6.6822 22.7729 5.9022C23.123 5.12221 23.2146 4.26392 23.0361 3.43588C22.8577 2.60785 22.4172 1.84724 21.7704 1.25026C21.1235 0.65328 20.2995 0.24673 19.4023 0.0820229C18.5051 -0.0826841 17.5752 0.00184955 16.7301 0.324934C15.885 0.648018 15.1627 1.19514 14.6545 1.89712C14.1463 2.5991 13.875 3.4244 13.875 4.26866C13.8762 5.40043 14.3639 6.48552 15.231 7.2858C16.0981 8.08609 17.2737 8.53618 18.5 8.53731ZM18.5 1.41467C19.1116 1.41467 19.7094 1.58205 20.218 1.89565C20.7265 2.20925 21.1228 2.65498 21.3569 3.17648C21.5909 3.69798 21.6521 4.27182 21.5328 4.82544C21.4135 5.37906 21.119 5.8876 20.6865 6.28673C20.2541 6.68587 19.7031 6.95769 19.1033 7.06781C18.5034 7.17793 17.8817 7.12141 17.3166 6.9054C16.7516 6.68939 16.2687 6.32359 15.9289 5.85425C15.5891 5.38491 15.4078 4.83312 15.4078 4.26866C15.4086 3.51191 15.7346 2.78638 16.3143 2.25121C16.8941 1.71605 17.6801 1.41497 18.5 1.41401V1.41467Z" fill="#36A73A"/>
<path d="M6.56694 41.9104C8.1383 41.9104 9.58792 41.0142 10.2983 39.6699H14.7728C15.4993 41.0279 16.9403 41.9104 18.4998 41.9104C20.0712 41.9104 21.5221 41.0142 22.2305 39.6699H26.705C27.4328 41.0276 28.8732 41.9104 30.4331 41.9104C32.7786 41.9104 34.6875 39.9709 34.6875 37.5849C34.6875 35.4321 33.1507 33.639 31.1408 33.2932V26.9814H32.8977V21.7313H4.10265V26.9814H5.85792V33.2922C3.85095 33.6393 2.3125 35.4324 2.3125 37.5849C2.3125 39.9702 4.22142 41.9104 6.56694 41.9104ZM18.4992 40.4725C17.9872 40.4714 17.485 40.3298 17.0457 40.0625C16.6063 39.7953 16.2462 39.4124 16.0033 38.9543L15.8622 38.6463C15.7101 38.3141 15.6315 37.952 15.6318 37.5856C15.6318 36.8129 15.9339 36.0718 16.4715 35.5254C17.0091 34.979 17.7382 34.672 18.4985 34.672C19.2588 34.672 19.988 34.979 20.5256 35.5254C21.0632 36.0718 21.3652 36.8129 21.3652 37.5856C21.3652 37.6311 21.3652 37.6762 21.3616 37.7214V37.7257C21.3596 37.7665 21.356 37.807 21.352 37.8475C21.352 37.8575 21.3497 37.8675 21.3487 37.8772C21.3455 37.9066 21.3412 37.9354 21.3369 37.9645C21.3326 37.9936 21.328 38.0207 21.3228 38.0488C21.3228 38.0585 21.3195 38.0682 21.3175 38.0775C21.2907 38.2141 21.2533 38.3483 21.2056 38.4788L21.2033 38.4848C21.1967 38.5029 21.1898 38.5209 21.1826 38.539C21.1678 38.5758 21.1527 38.6122 21.1362 38.648L20.9737 39.0021C20.489 39.892 19.5352 40.4718 18.4992 40.4718V40.4725ZM33.2718 37.5856C33.2725 38.2283 33.0621 38.8528 32.6737 39.36C32.2854 39.8672 31.7415 40.228 31.1284 40.3852C30.5153 40.5423 29.8681 40.4868 29.2895 40.2273C28.711 39.9679 28.2344 39.5195 27.9352 38.9533L27.7944 38.6463C27.6433 38.3138 27.5654 37.9519 27.5661 37.5856C27.5668 36.8131 27.869 36.0724 28.4065 35.5261C28.9439 34.9799 29.6727 34.6727 30.4327 34.672C31.9975 34.6713 33.2705 35.9778 33.2705 37.5849L33.2718 37.5856ZM5.51772 25.5428V23.1686H31.4806V25.5428H31.1391V25.5318H5.85792V25.5428H5.51772ZM29.7237 26.9808V33.2922C28.9784 33.4207 28.2796 33.7467 27.698 34.2374C27.1163 34.7282 26.6723 35.3662 26.4109 36.0872L26.4083 36.0952C26.3974 36.125 26.3872 36.1547 26.3754 36.1845L26.3714 36.1972C26.3619 36.2259 26.3523 36.255 26.3435 36.2841C26.3435 36.2888 26.3405 36.2935 26.3392 36.2982C26.3303 36.3276 26.3214 36.357 26.3132 36.3868C26.3132 36.3908 26.3109 36.3948 26.3096 36.3985C26.3007 36.4319 26.2918 36.4654 26.2832 36.4988V36.5008C26.2658 36.57 26.2503 36.6396 26.2355 36.7102C26.2354 36.7115 26.2354 36.7128 26.2355 36.7142C26.229 36.7476 26.2227 36.7787 26.2171 36.8115C26.2155 36.8198 26.2142 36.8285 26.2125 36.8372C26.2082 36.8626 26.204 36.8881 26.2 36.9135L26.1951 36.9469C26.1918 36.97 26.1885 36.9927 26.1855 37.0158C26.1839 37.0285 26.1826 37.0415 26.1809 37.0543C26.1783 37.076 26.1757 37.0981 26.1734 37.1211L26.1694 37.1619C26.1674 37.1833 26.1655 37.2051 26.1638 37.2268C26.1638 37.2405 26.1615 37.2539 26.1605 37.2679C26.1589 37.2897 26.1576 37.3117 26.1562 37.3348C26.1562 37.3479 26.1546 37.3612 26.1539 37.3746C26.1539 37.3987 26.152 37.4228 26.1513 37.4468C26.1513 37.4582 26.1513 37.4696 26.1513 37.4803C26.1513 37.5157 26.1513 37.5512 26.1513 37.587C26.1513 37.6364 26.1523 37.6859 26.1543 37.7354V37.7622C26.1589 37.8656 26.1671 37.9683 26.179 38.0702C26.1791 38.0718 26.1791 38.0735 26.179 38.0752C26.1852 38.128 26.1924 38.1809 26.2007 38.233H22.7289C22.7372 38.1815 22.7444 38.1297 22.7507 38.0779C22.7507 38.0742 22.7507 38.0705 22.7507 38.0672C22.7629 37.9666 22.7713 37.8656 22.7757 37.7642C22.7757 37.7542 22.7757 37.7438 22.7757 37.7334C22.7773 37.6846 22.7786 37.6358 22.7786 37.587C22.7786 35.1876 20.8572 33.2347 18.4965 33.2347C16.1359 33.2347 14.2145 35.1876 14.2145 37.587C14.2145 37.6361 14.2145 37.6849 14.2178 37.7341V37.7635C14.2247 37.9204 14.2407 38.0767 14.2655 38.2317H10.7977C10.8003 38.215 10.8023 38.1982 10.8046 38.1815C10.8092 38.1511 10.8132 38.121 10.8171 38.0909C10.8171 38.0792 10.8201 38.0675 10.8214 38.0575C10.8326 37.9598 10.8405 37.8615 10.8447 37.7632V37.7348C10.8467 37.6853 10.848 37.6344 10.848 37.587C10.848 37.5512 10.848 37.5157 10.848 37.4803C10.848 37.4686 10.848 37.4572 10.848 37.4468C10.848 37.4228 10.8464 37.3987 10.8454 37.3746C10.8454 37.3612 10.8438 37.3479 10.8431 37.3348C10.8431 37.3124 10.8405 37.2903 10.8388 37.2679L10.8359 37.2268C10.8339 37.2051 10.8322 37.1833 10.8299 37.1619L10.826 37.1211C10.8237 37.0994 10.8211 37.0773 10.8184 37.0543C10.8184 37.0415 10.8155 37.0285 10.8138 37.0158C10.8109 36.9927 10.8076 36.97 10.8043 36.9469L10.7993 36.9135C10.7954 36.8881 10.7911 36.8626 10.7868 36.8372C10.7852 36.8285 10.7839 36.8198 10.7826 36.8115C10.7766 36.778 10.7704 36.7446 10.7641 36.7142V36.7102C10.75 36.6396 10.7342 36.57 10.7164 36.5008V36.4988C10.7079 36.4654 10.6993 36.4319 10.6901 36.3985C10.6888 36.3947 10.6877 36.3907 10.6868 36.3868C10.6783 36.357 10.6697 36.3276 10.6605 36.2982C10.6605 36.2935 10.6575 36.2888 10.6562 36.2841C10.6473 36.255 10.6381 36.2259 10.6286 36.1972C10.6269 36.1932 10.6256 36.1888 10.6243 36.1845C10.6141 36.1547 10.6039 36.125 10.593 36.0952C10.5923 36.0925 10.5914 36.0898 10.5904 36.0872C10.3287 35.3658 9.88433 34.7275 9.30211 34.2368C8.71989 33.746 8.02049 33.4202 7.27464 33.2922V26.9814L29.7237 26.9808ZM6.56694 34.672C7.32701 34.6727 8.05576 34.9799 8.59321 35.5261C9.13067 36.0724 9.43291 36.8131 9.43361 37.5856C9.43361 37.6311 9.43361 37.6766 9.42999 37.7217V37.7261C9.42769 37.7669 9.4244 37.8077 9.42045 37.8481C9.42045 37.8582 9.41815 37.8685 9.41683 37.8789C9.41387 37.9076 9.40959 37.9361 9.40565 37.9648C9.4017 37.9936 9.39643 38.0233 9.39084 38.0524C9.39084 38.0608 9.38788 38.0688 9.38623 38.0768C9.35468 38.2369 9.30853 38.3936 9.24838 38.545C9.23489 38.5785 9.22074 38.6119 9.20594 38.6453L9.04637 38.9928C8.56206 39.8893 7.60398 40.4715 6.56727 40.4715C5.81438 40.4705 5.09261 40.166 4.56036 39.6248C4.02811 39.0836 3.72884 38.3498 3.72823 37.5846C3.7279 35.9778 5.00249 34.6713 6.56694 34.6713V34.672Z" fill="#36A73A"/>
<path d="M26.2084 14.574C26.2084 12.1014 24.1214 10.0896 21.5562 10.0896H15.4439C12.8792 10.0896 10.7917 12.1014 10.7917 14.574V20.9553H26.2084V14.574ZM24.7401 19.5393H12.2621V14.574C12.2628 13.7604 12.5984 12.9804 13.1952 12.4051C13.7921 11.8298 14.6013 11.5063 15.4453 11.5056H21.5576C22.4016 11.5063 23.2108 11.8298 23.8076 12.4051C24.4045 12.9804 24.7401 13.7604 24.7408 14.574L24.7401 19.5393Z" fill="#36A73A"/>
<path d="M7.18218 42.6865H4.38161C1.96568 42.6865 0 44.8302 0 47.4646V52H11.5625V47.4646C11.5625 44.8302 9.59811 42.6865 7.18218 42.6865ZM10.1789 50.4918H1.38292V47.4653C1.3836 46.5984 1.69968 45.7672 2.26178 45.1542C2.82387 44.5412 3.58604 44.1965 4.38096 44.1957H7.18154C7.97626 44.1968 8.73815 44.5416 9.29998 45.1546C9.86182 45.7676 10.1777 46.5986 10.1783 47.4653L10.1789 50.4918Z" fill="#36A73A"/>
<path d="M20.1785 42.6865H16.8207C13.9218 42.6865 11.5625 44.8302 11.5625 47.4646V52H25.4375V47.4646C25.4375 44.8302 23.0778 42.6865 20.1785 42.6865ZM23.7779 50.4918H13.2213V47.4653C13.2221 46.5984 13.6015 45.7672 14.276 45.1542C14.9506 44.5412 15.8652 44.1965 16.8192 44.1957H20.177C21.1313 44.1957 22.0467 44.54 22.7218 45.153C23.397 45.7659 23.7769 46.5973 23.7779 47.4646V50.4918Z" fill="#36A73A"/>
<path d="M32.6184 42.6865H29.8178C27.4019 42.6865 25.4375 44.8302 25.4375 47.4646V52H37V47.4646C37 44.8302 35.0343 42.6865 32.6184 42.6865ZM35.6164 50.4918H26.8211V47.4653C26.8217 46.5986 27.1375 45.7676 27.6994 45.1546C28.2612 44.5416 29.0231 44.1968 29.8178 44.1957H32.6184C33.4133 44.1965 34.1755 44.5412 34.7376 45.1542C35.2997 45.7672 35.6158 46.5984 35.6164 47.4653V50.4918Z" fill="#36A73A"/>
</svg>
