<svg width="51" height="53" viewBox="0 0 51 53" fill="none" xmlns="http://www.w3.org/2000/svg">
<path d="M17.3803 48.8919C30.5368 26.8696 3.59664 26 3.59664 26C3.59664 26 -7.86732 50.8329 17.3803 48.8919Z" fill="white" stroke="#36A73A" stroke-width="2" stroke-linecap="round" stroke-linejoin="round"/>
<path d="M7 32L17.0872 48.4508C17.0872 48.4508 20.936 54.3527 29 50.9352" stroke="#36A73A" stroke-width="2" stroke-linecap="round" stroke-linejoin="round"/>
<path d="M11 38C11 38 14.656 36.426 13.896 32" stroke="#36A73A" stroke-width="2" stroke-linecap="round" stroke-linejoin="round"/>
<path d="M11 38.3453C11 38.3453 7.91272 40.027 4 38" stroke="#36A73A" stroke-width="2" stroke-linecap="round" stroke-linejoin="round"/>
<path d="M14 43C14 43 18.8745 40.9049 17.8615 35" stroke="#36A73A" stroke-width="2" stroke-linecap="round" stroke-linejoin="round"/>
<path d="M14 43.3438C14 43.3438 10.477 45.028 6 43" stroke="#36A73A" stroke-width="2" stroke-linecap="round" stroke-linejoin="round"/>
<path d="M8 12.9445C23.6272 33.2931 35 8.67385 35 8.67385C35 8.67385 16.0608 -11.1598 8 12.9445Z" fill="white" stroke="#36A73A" stroke-width="2" stroke-linecap="round" stroke-linejoin="round"/>
<path d="M28 9L8.83563 12.3102C8.83563 12.3102 1.87348 13.7207 2.00175 23" stroke="#36A73A" stroke-width="2" stroke-linecap="round" stroke-linejoin="round"/>
<path d="M20 11C20 11 20.2567 14.8657 25 16" stroke="#36A73A" stroke-width="2" stroke-linecap="round" stroke-linejoin="round"/>
<path d="M20.1289 11C20.1289 11 18.9051 7.44456 24 5" stroke="#36A73A" stroke-width="2" stroke-linecap="round" stroke-linejoin="round"/>
<path d="M15 12C15 12 15.3057 16.6408 21 18" stroke="#36A73A" stroke-width="2" stroke-linecap="round" stroke-linejoin="round"/>
<path d="M15.1339 12C15.1339 12 13.8874 7.25938 19 4" stroke="#36A73A" stroke-width="2" stroke-linecap="round" stroke-linejoin="round"/>
<path d="M43.5567 23C18.5785 27.3761 35.7638 48 35.7638 48C35.7638 48 61.7005 40.5457 43.5567 23Z" fill="white" stroke="#36A73A" stroke-width="2" stroke-linecap="round" stroke-linejoin="round"/>
<path d="M37.3593 41L43.7761 22.5721C43.7761 22.5721 45.9103 15.7894 37 12" stroke="#36A73A" stroke-width="2" stroke-linecap="round" stroke-linejoin="round"/>
<path d="M40 34.3567C40 34.3567 36.7821 32.5684 34 37" stroke="#36A73A" stroke-width="2" stroke-linecap="round" stroke-linejoin="round"/>
<path d="M40 34C40 34 43.5461 34.6997 44 39" stroke="#36A73A" stroke-width="2" stroke-linecap="round" stroke-linejoin="round"/>
<path d="M42 28.4764C42 28.4764 37.1842 26.0898 33 32" stroke="#36A73A" stroke-width="2" stroke-linecap="round" stroke-linejoin="round"/>
<path d="M42 28C42 28 46.4118 29.1191 47 36" stroke="#36A73A" stroke-width="2" stroke-linecap="round" stroke-linejoin="round"/>
</svg>
