<svg width="67" height="69" viewBox="0 0 67 69" fill="none" xmlns="http://www.w3.org/2000/svg">
<path d="M52.6095 17.8599C52.6095 19.0899 51.6095 20.0799 50.3895 20.0799H43.1895V15.6299H50.3895C51.6195 15.6299 52.6095 16.6299 52.6095 17.8499V17.8599Z" fill="#82C341"/>
<path d="M52.6095 7.0298C52.6095 8.2598 51.6095 9.2498 50.3895 9.2498H43.1895V4.7998H50.3895C51.6195 4.7998 52.6095 5.7998 52.6095 7.0198V7.0298Z" fill="#82C341"/>
<path d="M27.6002 56.3704C27.5902 53.3704 25.1502 50.9404 22.1502 50.9404C19.1502 50.9404 16.7102 53.3704 16.7002 56.3704V56.3904C16.7002 59.4004 19.1402 61.8504 22.1602 61.8504C25.1802 61.8504 27.6202 59.4104 27.6202 56.3904V56.3704H27.6002Z" fill="#82C341"/>
<path d="M55.7603 56.3704C55.7503 53.3704 53.3104 50.9404 50.3104 50.9404C47.3104 50.9404 44.8704 53.3704 44.8604 56.3704V56.3904C44.8604 59.4004 47.3004 61.8504 50.3204 61.8504C53.3404 61.8504 55.7803 59.4104 55.7803 56.3904V56.3704H55.7603Z" fill="#82C341"/>
<path d="M33.3795 6.11035L28.9395 12.9904H33.6695L30.6895 18.4404H31.3795L37.5795 11.2704H32.4795L37.3295 6.11035H33.3795Z" fill="#82C341"/>
<path d="M58.91 43.2H51.02L40.04 34.58C39.03 33.79 37.76 33.35 36.48 33.35H26.14C24.24 33.35 22.47 34.28 21.39 35.85L15.77 44.01H12.79C10.77 44.01 9.12 45.66 9.12 47.68V49.15C4.63 45.3 2 39.64 2 33.68C2 22.68 10.76 13.71 21.67 13.33V16.38C21.67 21.07 25.48 24.88 30.17 24.88H43.18C43.73 24.88 44.18 24.43 44.18 23.88V21.08H50.38C52.16 21.08 53.6 19.63 53.6 17.86C53.6 16.09 52.15 14.64 50.38 14.64H44.18V10.26H50.38C52.16 10.26 53.6 8.81 53.6 7.04C53.6 5.27 52.15 3.82 50.38 3.82H44.18V1C44.18 0.45 43.73 0 43.18 0H30.17C25.48 0 21.67 3.81 21.67 8.5V11.32C9.66 11.69 0 21.58 0 33.68C0 40.78 3.41 47.5 9.12 51.71V56.37C9.12 56.92 9.57 57.37 10.12 57.37H15.77C16.24 60.47 18.92 62.85 22.14 62.85C25.36 62.85 28.04 60.47 28.51 57.37H43.92C44.39 60.47 47.07 62.85 50.29 62.85C53.51 62.85 56.19 60.47 56.66 57.37H63.21C63.76 57.37 64.21 56.92 64.21 56.37V48.52C64.21 45.59 61.82 43.2 58.89 43.2H58.91ZM44.18 5.8H50.38C51.05 5.8 51.6 6.35 51.6 7.02C51.6 7.69 51.05 8.24 50.38 8.24H44.18V5.79V5.8ZM44.18 16.63H50.38C51.05 16.63 51.6 17.18 51.6 17.85C51.6 18.52 51.05 19.07 50.38 19.07H44.18V16.62V16.63ZM23.67 8.5C23.67 4.92 26.59 2 30.17 2H42.18V22.89H30.17C26.59 22.89 23.67 19.97 23.67 16.39V8.5ZM22.15 60.85C19.7 60.85 17.71 58.87 17.69 56.43C17.69 56.41 17.69 56.39 17.69 56.38C17.7 53.93 19.7 51.94 22.14 51.94C24.58 51.94 26.58 53.93 26.59 56.38C26.59 56.4 26.59 56.42 26.59 56.45C26.56 58.89 24.58 60.86 22.13 60.86L22.15 60.85ZM50.31 60.85C47.86 60.85 45.87 58.87 45.85 56.43C45.85 56.41 45.85 56.39 45.85 56.38C45.86 53.93 47.86 51.94 50.3 51.94C52.74 51.94 54.74 53.93 54.75 56.38C54.75 56.4 54.75 56.42 54.75 56.45C54.72 58.89 52.74 60.86 50.29 60.86L50.31 60.85ZM62.24 55.37H56.69C56.69 55.37 56.67 55.31 56.67 55.28C56.61 54.95 56.53 54.62 56.42 54.31C56.4 54.26 56.38 54.22 56.37 54.17C56.25 53.85 56.11 53.54 55.95 53.24C55.94 53.22 55.92 53.2 55.91 53.18C55.74 52.89 55.55 52.61 55.33 52.34C55.32 52.32 55.3 52.3 55.29 52.28C55.08 52.02 54.84 51.78 54.59 51.56C54.55 51.53 54.52 51.5 54.48 51.46C54.23 51.25 53.97 51.06 53.69 50.89C53.64 50.86 53.59 50.83 53.54 50.8C53.26 50.64 52.97 50.49 52.66 50.37C52.61 50.35 52.56 50.33 52.51 50.31C52.19 50.2 51.87 50.1 51.53 50.04C51.49 50.04 51.45 50.03 51.41 50.02C51.05 49.96 50.69 49.92 50.32 49.92C49.95 49.92 49.58 49.96 49.23 50.02C49.19 50.02 49.15 50.03 49.11 50.04C48.77 50.1 48.45 50.2 48.13 50.31C48.08 50.33 48.03 50.35 47.98 50.37C47.67 50.49 47.38 50.63 47.1 50.8C47.05 50.83 47 50.86 46.95 50.89C46.67 51.06 46.41 51.25 46.16 51.46C46.12 51.49 46.09 51.53 46.05 51.56C45.8 51.78 45.56 52.02 45.35 52.28C45.33 52.3 45.32 52.32 45.3 52.34C45.09 52.6 44.91 52.87 44.74 53.16C44.72 53.19 44.7 53.22 44.69 53.25C44.53 53.54 44.39 53.84 44.28 54.16C44.26 54.21 44.24 54.27 44.22 54.32C44.11 54.63 44.03 54.95 43.98 55.27C43.98 55.3 43.96 55.33 43.96 55.37H28.54C28.54 55.37 28.52 55.31 28.52 55.28C28.46 54.95 28.38 54.62 28.27 54.31C28.25 54.26 28.23 54.22 28.22 54.17C28.1 53.85 27.96 53.54 27.8 53.25C27.79 53.23 27.77 53.21 27.76 53.18C27.59 52.89 27.4 52.61 27.19 52.35C27.17 52.33 27.16 52.31 27.15 52.29C26.94 52.03 26.7 51.79 26.45 51.57C26.41 51.54 26.38 51.5 26.34 51.47C26.09 51.26 25.83 51.07 25.55 50.9C25.5 50.87 25.45 50.84 25.4 50.81C25.12 50.65 24.83 50.5 24.52 50.38C24.47 50.36 24.42 50.34 24.36 50.32C24.04 50.21 23.72 50.11 23.38 50.05C23.34 50.05 23.3 50.04 23.26 50.03C22.9 49.97 22.54 49.93 22.17 49.93C21.8 49.93 21.43 49.97 21.08 50.03C21.04 50.03 21 50.04 20.96 50.05C20.62 50.11 20.3 50.21 19.98 50.32C19.93 50.34 19.88 50.36 19.83 50.38C19.52 50.5 19.23 50.64 18.95 50.81C18.9 50.84 18.85 50.87 18.8 50.9C18.52 51.07 18.26 51.26 18.01 51.47C17.97 51.5 17.94 51.54 17.9 51.57C17.65 51.79 17.41 52.03 17.2 52.29C17.18 52.31 17.17 52.33 17.15 52.35C16.94 52.61 16.76 52.88 16.59 53.17C16.57 53.2 16.55 53.23 16.54 53.26C16.38 53.55 16.24 53.85 16.13 54.17C16.11 54.22 16.09 54.28 16.07 54.33C15.96 54.64 15.88 54.96 15.83 55.28C15.83 55.31 15.81 55.34 15.81 55.38H11.16V47.69C11.16 46.77 11.91 46.02 12.83 46.02H16.34C16.67 46.02 16.98 45.86 17.16 45.59L23.08 36.99C23.78 35.97 24.94 35.36 26.18 35.36H36.52C37.36 35.36 38.19 35.65 38.85 36.16L47.83 43.21H26.19C25.64 43.21 25.19 43.66 25.19 44.21C25.19 44.76 25.64 45.21 26.19 45.21H50.72H58.95C60.78 45.21 62.27 46.7 62.27 48.53V55.38L62.24 55.37Z" fill="#231F20"/>
<path d="M65.4697 68.0996H7.46973C6.91973 68.0996 6.46973 67.6496 6.46973 67.0996C6.46973 66.5496 6.91973 66.0996 7.46973 66.0996H65.4697C66.0197 66.0996 66.4697 66.5496 66.4697 67.0996C66.4697 67.6496 66.0197 68.0996 65.4697 68.0996Z" fill="#82C341"/>
</svg>
