<svg width="71" height="54" viewBox="0 0 71 54" fill="none" xmlns="http://www.w3.org/2000/svg">
<path d="M54.8394 43.3099C51.2294 45.0399 47.1494 46.9999 41.4494 49.2499C31.8894 53.0399 24.5994 53.3399 19.7794 50.1299C15.1994 47.0799 14.1194 41.5699 13.8594 39.3899C26.8794 37.4099 46.9894 35.5099 66.9094 38.1799C62.3394 39.7199 58.7894 41.4199 54.8294 43.3099H54.8394Z" fill="#82C341"/>
<path d="M31.6691 27.5898H28.8291C28.2791 27.5898 27.8291 27.1398 27.8291 26.5898C27.8291 26.0398 28.2791 25.5898 28.8291 25.5898H31.6691C32.2191 25.5898 32.6691 26.0398 32.6691 26.5898C32.6691 27.1398 32.2191 27.5898 31.6691 27.5898Z" fill="#82C341"/>
<path d="M41.4591 27.5898H38.6191C38.0691 27.5898 37.6191 27.1398 37.6191 26.5898C37.6191 26.0398 38.0691 25.5898 38.6191 25.5898H41.4591C42.0091 25.5898 42.4591 26.0398 42.4591 26.5898C42.4591 27.1398 42.0091 27.5898 41.4591 27.5898Z" fill="#82C341"/>
<path d="M51.2492 27.5898H48.4092C47.8592 27.5898 47.4092 27.1398 47.4092 26.5898C47.4092 26.0398 47.8592 25.5898 48.4092 25.5898H51.2492C51.7992 25.5898 52.2492 26.0398 52.2492 26.5898C52.2492 27.1398 51.7992 27.5898 51.2492 27.5898Z" fill="#82C341"/>
<path d="M70.0489 38.71C70.0889 38.6 70.0989 38.47 70.0889 38.33C70.0289 37.4 68.9889 37.36 68.2989 37.25C67.2789 37.08 66.2589 36.93 65.2389 36.79C63.1789 36.51 61.1089 36.28 59.0389 36.09V11.48C59.0389 11.11 58.8389 10.77 58.5089 10.6C58.1789 10.43 57.7889 10.44 57.4789 10.65L49.2989 16.09V11.48C49.2989 11.11 49.0989 10.77 48.7689 10.6C48.4389 10.43 48.0489 10.44 47.7389 10.65L39.5589 16.09V11.48C39.5589 11.11 39.3589 10.77 39.0289 10.6C38.6989 10.43 38.3089 10.44 37.9989 10.65L29.8189 16.09V1C29.8189 0.45 29.3689 0 28.8189 0H17.3389C16.7889 0 16.3389 0.45 16.3389 1V37.62C15.4489 37.75 12.9889 38.13 12.7689 38.16C5.4589 39.33 0.888901 40.46 0.758901 40.49C0.218901 40.62 -0.101099 41.17 0.0289013 41.7C0.138901 42.15 0.548901 42.46 0.998901 42.46C1.0789 42.46 1.1589 42.46 1.2389 42.43C1.3589 42.4 5.7589 41.32 12.8189 40.17C13.0989 42.6 14.2689 48.29 19.2289 51.6C21.6289 53.2 24.5589 54 27.9889 54C31.8389 54 36.3289 52.99 41.4289 50.97C46.8389 48.83 50.7089 46.97 54.1189 45.34C57.7389 43.61 61.3689 41.91 65.1789 40.63C66.1289 40.31 67.0989 40.01 68.0589 39.73C68.6989 39.54 69.8089 39.43 70.0489 38.71ZM18.3389 2H27.8189V17.96C27.8189 18.33 28.0189 18.67 28.3489 18.84C28.6789 19.01 29.0689 19 29.3789 18.79L37.5589 13.35V17.96C37.5589 18.33 37.7589 18.67 38.0889 18.84C38.4089 19.01 38.8089 19 39.1189 18.79L47.2989 13.35V17.96C47.2989 18.33 47.4989 18.67 47.8289 18.84C48.1589 19.01 48.5489 19 48.8589 18.79L57.0389 13.35V35.93C42.6589 34.85 28.7389 35.95 18.3389 37.35V2ZM53.2589 43.54C49.8789 45.16 46.0389 47 40.6989 49.11C31.7289 52.67 24.8789 52.94 20.3589 49.94C16.0589 47.08 15.0489 41.91 14.8089 39.86C17.6089 39.43 20.7489 39.01 24.1689 38.65C25.1689 40.11 28.5689 44.56 34.0389 46.53C34.1489 46.57 34.2689 46.59 34.3789 46.59C34.7889 46.59 35.1689 46.34 35.3189 45.93C35.5089 45.41 35.2389 44.84 34.7189 44.65C30.6989 43.2 27.8589 40.15 26.4889 38.42C30.6289 38.02 35.1189 37.71 39.8089 37.57C40.5889 38.35 43.3889 40.94 47.0189 41.85C47.0989 41.87 47.1789 41.88 47.2589 41.88C47.7089 41.88 48.1189 41.58 48.2289 41.12C48.3589 40.58 48.0389 40.04 47.4989 39.91C45.6089 39.44 43.9489 38.4 42.7789 37.51C49.7989 37.42 57.1989 37.74 64.5789 38.73C60.2889 40.18 56.9589 41.77 53.2489 43.55L53.2589 43.54Z" fill="#222425"/>
</svg>
