<svg width="46" height="40" viewBox="0 0 46 40" fill="none" xmlns="http://www.w3.org/2000/svg">
<path d="M44.9867 12.4804C44.9867 12.336 44.9701 12.2027 44.9563 12.0472C44.9563 12.0027 44.9563 11.9611 44.9563 11.9166C44.8125 9.0431 43.5558 6.33974 41.4543 4.38339C39.3529 2.42704 36.573 1.3726 33.7079 1.44508C30.8429 1.51756 28.1194 2.7112 26.1188 4.77133C24.1181 6.83145 22.9986 9.59492 22.9992 12.4721V12.0305C22.9998 9.15334 21.8803 6.38988 19.8796 4.32975C17.879 2.26963 15.1555 1.07598 12.2905 1.0035C9.42539 0.931027 6.64554 1.98546 4.54406 3.94181C2.44258 5.89817 1.18588 8.60152 1.04211 11.4751C1.04211 11.5223 1.04211 11.5612 1.04211 11.6084C1.04211 11.7528 1.01998 11.8861 1.01444 12.0416C0.347735 25.711 22.9854 39 22.9854 39C22.9854 39 45.6258 26.1582 44.9867 12.4804Z" fill="white" stroke="#36A73A" stroke-width="2" stroke-linecap="round" stroke-linejoin="round"/>
<path d="M23.1029 29.9111C33.6329 11.7177 12.0708 11 12.0708 11C12.0708 11 2.9164 31.5103 23.1029 29.9111Z" fill="white" stroke="#36A73A" stroke-width="2" stroke-linecap="round" stroke-linejoin="round"/>
<path d="M15 16L22.7994 29.1631C22.7994 29.1631 25.7725 33.8872 32 31.1431" stroke="#36A73A" stroke-width="2" stroke-linecap="round" stroke-linejoin="round"/>
<path d="M18 21C18 21 21.6498 19.9517 20.898 17" stroke="#36A73A" stroke-width="2" stroke-linecap="round" stroke-linejoin="round"/>
<path d="M18 21.3457C18 21.3457 15.7984 23.0266 13 21" stroke="#36A73A" stroke-width="2" stroke-linecap="round" stroke-linejoin="round"/>
<path d="M21 25C21 25 24.6656 23.4264 23.893 19" stroke="#36A73A" stroke-width="2" stroke-linecap="round" stroke-linejoin="round"/>
<path d="M21 25.3453C21 25.3453 17.9172 27.027 14 25" stroke="#36A73A" stroke-width="2" stroke-linecap="round" stroke-linejoin="round"/>
</svg>
