<svg width="29" height="56" viewBox="0 0 29 56" fill="none" xmlns="http://www.w3.org/2000/svg">
<path d="M14.5017 1C10.9208 1 7.48661 2.43885 4.95455 5.00002C2.42249 7.56119 1 11.0349 1 14.6569V55H28V14.6569C28.0004 12.8636 27.6516 11.0878 26.9735 9.4309C26.2953 7.77399 25.3011 6.26843 24.0476 5.00023C22.7941 3.73202 21.3059 2.726 19.668 2.03964C18.0301 1.35327 16.2746 1 14.5017 1ZM14.5017 17.1881C13.4594 17.1881 12.4405 16.8755 11.5739 16.2898C10.7073 15.7041 10.0318 14.8716 9.63297 13.8976C9.23411 12.9235 9.12975 11.8518 9.33309 10.8178C9.53643 9.78376 10.0383 8.83396 10.7753 8.08849C11.5123 7.34301 12.4513 6.83534 13.4736 6.62966C14.4958 6.42399 15.5554 6.52955 16.5184 6.93299C17.4813 7.33644 18.3043 8.01966 18.8834 8.89625C19.4625 9.77283 19.7715 10.8034 19.7715 11.8577C19.7715 13.2714 19.2163 14.6272 18.228 15.6269C17.2397 16.6265 15.8993 17.1881 14.5017 17.1881Z" fill="white" stroke="#36A73A" stroke-width="2" stroke-linecap="round" stroke-linejoin="round"/>
<path d="M19.3703 31.0148L16.9718 26.6502C16.9362 26.3515 16.8145 26.3694 16.5503 26.1872C16.3164 26.0265 16.0287 25.9659 15.7505 26.0185C15.4722 26.0712 15.226 26.2328 15.0661 26.468L12.2164 30.6503C12.1292 30.7663 12.0663 30.8989 12.0315 31.04C11.9967 31.1811 11.9907 31.3279 12.0138 31.4714C12.0369 31.6149 12.0887 31.7522 12.1661 31.875C12.2435 31.9978 12.3448 32.1036 12.4639 32.1859C12.583 32.2682 12.7175 32.3253 12.8592 32.3538C13.0009 32.3823 13.1468 32.3816 13.2882 32.3517C13.4296 32.3218 13.5635 32.2634 13.6819 32.1799C13.8002 32.0965 13.9005 31.9898 13.9767 31.8662L15.7874 29.2074L17.4794 32.1201L16.1377 32.9088L20.62 35L21 30.0558L19.3703 31.0148Z" fill="#36A73A"/>
<path d="M25.8582 42.5724L22.954 36.7281C22.7893 36.3979 22.515 36.155 22.1915 36.0529C21.868 35.9508 21.5217 35.9977 21.229 36.1835C20.9362 36.3693 20.7208 36.6786 20.6303 37.0435C20.5397 37.4083 20.5814 37.7988 20.7461 38.129L22.4956 41.6253L18.8216 41.5819V39.522L14 43.2077L18.7552 47L18.7762 44.4902L24.2101 44.5534C24.4509 44.6794 24.7208 44.7164 24.9814 44.6591C25.2419 44.6018 25.4797 44.4532 25.6609 44.2344C25.8421 44.0156 25.9574 43.7379 25.9903 43.4408C26.0232 43.1438 25.972 42.8426 25.8442 42.5803L25.8582 42.5724Z" fill="#36A73A"/>
<path d="M10.9123 41.7026H8.28336L10.0054 39.2569L11.1936 40.2996L11.4806 35L6.90859 36.5593L8.34363 37.8124L5.40468 41.7058C5.16974 42.0338 5.02877 42.4325 5 42.8505C5.00076 43.1547 5.10986 43.4462 5.30346 43.6613C5.49706 43.8763 5.75943 43.9976 6.03322 43.9984H10.9123C11.0524 44.0066 11.1925 43.9831 11.3241 43.9292C11.4557 43.8752 11.5761 43.7921 11.6779 43.6849C11.7796 43.5776 11.8607 43.4485 11.9161 43.3053C11.9714 43.1621 12 43.0079 12 42.8521C12 42.6962 11.9714 42.542 11.9161 42.3989C11.8607 42.2557 11.7796 42.1265 11.6779 42.0193C11.5761 41.912 11.4557 41.8289 11.3241 41.775C11.1925 41.7211 11.0524 41.6975 10.9123 41.7058V41.7026Z" fill="#36A73A"/>
</svg>
