<svg width="57" height="64" viewBox="0 0 57 64" fill="none" xmlns="http://www.w3.org/2000/svg">
<path d="M56.7219 15.0673L48.6928 7.03817C48.3316 6.677 47.7482 6.677 47.387 7.03817C47.0259 7.39934 47.0259 7.98277 47.387 8.34394L50.9432 11.9001V20.1792C50.9432 22.9482 52.4434 24.4947 55.1476 24.578V52.564C55.1476 53.7772 54.1567 54.7681 52.9435 54.7681C51.7303 54.7681 50.7394 53.7772 50.7394 52.564V36.2373C50.7394 33.1813 48.2483 30.6901 45.1922 30.6901H44.581V7.53826C44.581 3.38018 41.2009 0 37.0428 0H17.7619C13.6038 0 10.2236 3.38018 10.2236 7.53826V62.2045C10.2236 62.7138 10.6404 63.1306 11.1497 63.1306C11.659 63.1306 12.0758 62.7138 12.0758 62.2045V7.53826C12.0758 4.39886 14.6225 1.85215 17.7619 1.85215H37.0428C40.1822 1.85215 42.7289 4.39886 42.7289 7.53826V62.2045C42.7289 62.7138 43.1456 63.1306 43.655 63.1306C44.1643 63.1306 44.581 62.7138 44.581 62.2045V32.5516H45.1922C47.2296 32.5516 48.8873 34.2092 48.8873 36.2466V52.5733C48.8873 54.8144 50.7024 56.6295 52.9435 56.6295C55.1846 56.6295 56.9997 54.8144 56.9997 52.5733V15.7248C56.9997 15.4747 56.8978 15.2432 56.7311 15.0673H56.7219ZM52.7861 20.1792V13.7522L55.1383 16.1045V22.7352C53.4806 22.6703 52.7861 21.9295 52.7861 20.1884V20.1792Z" fill="#231F20"/>
<path d="M18.9007 15.0671C18.3913 15.0671 17.9746 14.6504 17.9746 14.141V10.1219C17.9746 9.61253 18.3913 9.1958 18.9007 9.1958C19.41 9.1958 19.8268 9.61253 19.8268 10.1219V14.141C19.8268 14.6504 19.41 15.0671 18.9007 15.0671Z" fill="#82C341"/>
<path d="M24.5589 15.0671C24.0495 15.0671 23.6328 14.6504 23.6328 14.141V10.1219C23.6328 9.61253 24.0495 9.1958 24.5589 9.1958C25.0682 9.1958 25.485 9.61253 25.485 10.1219V14.141C25.485 14.6504 25.0682 15.0671 24.5589 15.0671Z" fill="#82C341"/>
<path d="M30.2269 15.0671C29.7175 15.0671 29.3008 14.6504 29.3008 14.141V10.1219C29.3008 9.61253 29.7175 9.1958 30.2269 9.1958C30.7362 9.1958 31.1529 9.61253 31.1529 10.1219V14.141C31.1529 14.6504 30.7362 15.0671 30.2269 15.0671Z" fill="#82C341"/>
<path d="M35.8851 15.0671C35.3757 15.0671 34.959 14.6504 34.959 14.141V10.1219C34.959 9.61253 35.3757 9.1958 35.8851 9.1958C36.3944 9.1958 36.8111 9.61253 36.8111 10.1219V14.141C36.8111 14.6504 36.3944 15.0671 35.8851 15.0671Z" fill="#82C341"/>
<path d="M35.8849 20.003H18.9007C18.3913 20.003 17.9746 19.5863 17.9746 19.077C17.9746 18.5676 18.3913 18.1509 18.9007 18.1509H35.8849C36.3943 18.1509 36.811 18.5676 36.811 19.077C36.811 19.5863 36.3943 20.003 35.8849 20.003Z" fill="#231F20"/>
<path d="M27.2637 27.9575C27.2637 27.9575 20.2533 36.144 19.8181 44.3305C19.5402 49.5258 23.9947 51.8317 27.2637 51.8317C30.5327 51.8317 34.9872 49.5166 34.7093 44.3305C34.2741 36.144 27.2637 27.9575 27.2637 27.9575Z" fill="#82C341"/>
<path d="M35.6444 44.2753C35.1999 35.8758 28.2635 27.6985 27.9765 27.3559C27.9765 27.3559 27.9579 27.3466 27.9487 27.3373C27.782 27.1521 27.5412 27.0317 27.2726 27.0317C27.0041 27.0317 26.7633 27.1521 26.5966 27.3373C26.5966 27.3373 26.5781 27.3466 26.5688 27.3559C26.2725 27.6985 19.3454 35.8758 18.9009 44.2753C18.7805 46.5534 19.4843 48.563 20.929 50.091C22.2811 51.5172 24.2999 52.4803 26.3466 52.7026V56.4902C26.3466 56.9995 26.7633 57.4163 27.2726 57.4163C27.782 57.4163 28.1987 56.9995 28.1987 56.4902V52.7026C30.2453 52.4803 32.2642 51.5172 33.6163 50.091C35.0609 48.563 35.7648 46.5534 35.6444 44.2753ZM22.2718 48.813C21.1698 47.6462 20.6512 46.1552 20.7438 44.3771C21.0309 39.0429 24.2999 33.6161 26.3466 30.7083V36.6166L25.9206 36.1906C25.5594 35.8295 24.976 35.8295 24.6148 36.1906C24.2536 36.5518 24.2536 37.1352 24.6148 37.4964L26.3466 39.2282V43.201L24.4296 41.284C24.0684 40.9229 23.485 40.9229 23.1238 41.284C22.7627 41.6452 22.7627 42.2286 23.1238 42.5898L26.3558 45.8218V50.8226C25.0223 50.6374 23.4572 50.0447 22.2811 48.8038L22.2718 48.813ZM28.1987 50.8319V45.8496L31.6345 42.6269C32.0049 42.2749 32.0234 41.6915 31.6808 41.3211C31.3289 40.9507 30.7454 40.9321 30.375 41.284L28.1987 43.3214V39.2559L29.9675 37.4871C30.3287 37.126 30.3287 36.5425 29.9675 36.1814C29.6064 35.8202 29.0229 35.8202 28.6618 36.1814L28.1987 36.6444V30.7268C30.2453 33.6254 33.5144 39.0429 33.8015 44.3957C33.8941 46.1737 33.3847 47.674 32.2734 48.8316C31.0973 50.0725 29.5323 50.6652 28.1987 50.8504V50.8319Z" fill="#231F20"/>
<path d="M54.0833 63.6504H0.916667C0.4125 63.6504 0 63.4254 0 63.1504C0 62.8754 0.4125 62.6504 0.916667 62.6504H54.0833C54.5875 62.6504 55 62.8754 55 63.1504C55 63.4254 54.5875 63.6504 54.0833 63.6504Z" fill="#82C341"/>
</svg>
