<svg width="49" height="54" viewBox="0 0 49 54" fill="none" xmlns="http://www.w3.org/2000/svg">
<path d="M23.7419 41.7793L34.0214 31.9165C35.0484 30.958 36.8162 31.1816 37.9672 32.4277C39.1182 33.6737 39.2232 35.4597 38.1962 36.4214L26.7879 47.3418C26.7625 47.3673 26.7339 47.3865 26.7085 47.4089C26.5442 47.5949 26.3425 47.7438 26.1166 47.8457C25.8908 47.9476 25.646 48.0002 25.3985 47.9999" fill="white"/>
<path d="M23.7419 41.7793L34.0214 31.9165C35.0484 30.958 36.8162 31.1816 37.9672 32.4277C39.1182 33.6737 39.2232 35.4597 38.1962 36.4214L26.7879 47.3418C26.7625 47.3673 26.7339 47.3865 26.7085 47.4089C26.5442 47.5949 26.3425 47.7438 26.1166 47.8457C25.8908 47.9476 25.646 48.0002 25.3985 47.9999" stroke="#36A73A" stroke-width="2" stroke-linecap="round" stroke-linejoin="round"/>
<path d="M28.2903 43.2946L39.5886 33.4305C40.7213 32.4719 42.6614 32.702 43.9304 33.945C45.1994 35.188 45.3287 36.9774 44.1821 37.936L31.6427 48.861C31.6164 48.884 31.5883 48.9053 31.5588 48.9249C31.3792 49.1112 31.1581 49.2604 30.9103 49.3623C30.6625 49.4643 30.3938 49.5167 30.1221 49.516" fill="white"/>
<path d="M28.2903 43.2946L39.5886 33.4305C40.7213 32.4719 42.6614 32.702 43.9304 33.945C45.1994 35.188 45.3287 36.9774 44.1821 37.936L31.6427 48.861C31.6164 48.884 31.5883 48.9053 31.5588 48.9249C31.3792 49.1112 31.1581 49.2604 30.9103 49.3623C30.6625 49.4643 30.3938 49.5167 30.1221 49.516" stroke="#36A73A" stroke-width="2" stroke-linecap="round" stroke-linejoin="round"/>
<path d="M5.54839 37.3872H1V52.5485H5.54839V37.3872Z" fill="white" stroke="#36A73A" stroke-width="2" stroke-linecap="round" stroke-linejoin="round"/>
<path d="M38.9031 41.9354C38.9031 41.8608 38.9031 41.7861 38.9031 41.7115C38.9031 38.152 37.4655 34.7382 34.9065 32.2213C32.3476 29.7043 28.8769 28.2903 25.258 28.2903C21.639 28.2903 18.1683 29.7043 15.6094 32.2213C13.0504 34.7382 11.6128 38.152 11.6128 41.7115C11.6128 41.7861 11.6128 41.8608 11.6128 41.9354" fill="white"/>
<path d="M38.9031 41.9354C38.9031 41.8608 38.9031 41.7861 38.9031 41.7115C38.9031 38.152 37.4655 34.7382 34.9065 32.2213C32.3476 29.7043 28.8769 28.2903 25.258 28.2903C21.639 28.2903 18.1683 29.7043 15.6094 32.2213C13.0504 34.7382 11.6128 38.152 11.6128 41.7115C11.6128 41.7861 11.6128 41.8608 11.6128 41.9354" stroke="#36A73A" stroke-width="2" stroke-linecap="round" stroke-linejoin="round"/>
<path d="M20.3038 22.1686C27.2885 10.561 12.9882 10.0967 12.9882 10.0967C12.9882 10.0967 6.91152 23.1928 20.3038 22.1686Z" fill="white" stroke="#36A73A" stroke-width="2" stroke-linecap="round" stroke-linejoin="round"/>
<path d="M14.645 13.1292L19.5116 21.863C19.5116 21.863 21.3659 24.9937 25.2579 23.173" stroke="#36A73A" stroke-width="2" stroke-linecap="round" stroke-linejoin="round"/>
<path d="M31.7262 23.6847C24.7465 12.0771 39.0434 11.6128 39.0434 11.6128C39.0434 11.6128 45.122 24.7089 31.7262 23.6847Z" fill="white" stroke="#36A73A" stroke-width="2" stroke-linecap="round" stroke-linejoin="round"/>
<path d="M37.3871 16.1614L31.8253 23.6464C31.8253 23.6464 29.7061 26.3295 25.2581 24.772" stroke="#36A73A" stroke-width="2" stroke-linecap="round" stroke-linejoin="round"/>
<path d="M25.2581 29.8066V14.6453" stroke="#36A73A" stroke-width="2" stroke-linecap="round" stroke-linejoin="round"/>
<path d="M25.9706 4.97477V14.6452C14.0769 8.57772 26.0684 1 26.0684 1C26.0684 1 37.9554 8.74553 25.9706 14.6452" fill="white"/>
<path d="M25.9706 4.97477V14.6452M25.9706 14.6452C14.0769 8.57772 26.0684 1 26.0684 1C26.0684 1 37.9554 8.74553 25.9706 14.6452Z" stroke="#36A73A" stroke-width="2" stroke-linecap="round" stroke-linejoin="round"/>
<path d="M21.6533 44.5959L26.9816 45.8739C27.4244 45.9937 27.8869 46.0265 28.3426 45.9704C28.7983 45.9144 29.2383 45.7705 29.6375 45.5471C30.0367 45.3237 30.3872 45.0251 30.6692 44.6684C30.9511 44.3117 31.1588 43.9038 31.2806 43.4681C31.4028 43.0323 31.4364 42.5772 31.3797 42.1286C31.3229 41.6801 31.1767 41.247 30.9496 40.8541C30.7225 40.4611 30.4189 40.1162 30.0562 39.8388C29.6934 39.5615 29.2787 39.3573 28.8356 39.2379C28.8356 39.2379 21.8286 36.9279 19.4194 37.0014C15.5945 37.1037 5.54834 38.9567 5.54834 38.9567V51.5386L18.4615 51.9284L34.2093 52.5483C34.4623 52.5493 34.7125 52.4971 34.9432 52.3952C35.174 52.2932 35.3799 52.1439 35.5471 51.9572L35.625 51.8933L47.2751 40.9728C48.3272 40.0143 48.22 38.2219 47.0446 36.979C45.8692 35.7362 44.0509 35.503 42.9989 36.4615L32.5014 46.318" fill="white"/>
<path d="M21.6533 44.5959L26.9816 45.8739C27.4244 45.9937 27.8869 46.0265 28.3426 45.9704C28.7983 45.9144 29.2383 45.7705 29.6375 45.5471C30.0367 45.3237 30.3872 45.0251 30.6692 44.6684C30.9511 44.3117 31.1588 43.9038 31.2806 43.4681C31.4028 43.0323 31.4364 42.5772 31.3797 42.1286C31.3229 41.6801 31.1767 41.247 30.9496 40.8541C30.7225 40.4611 30.4189 40.1162 30.0562 39.8388C29.6934 39.5615 29.2787 39.3573 28.8356 39.2379C28.8356 39.2379 21.8286 36.9279 19.4194 37.0014C15.5945 37.1037 5.54834 38.9567 5.54834 38.9567V51.5386L18.4615 51.9284L34.2093 52.5483C34.4623 52.5493 34.7125 52.4971 34.9432 52.3952C35.174 52.2932 35.3799 52.1439 35.5471 51.9572L35.625 51.8933L47.2751 40.9728C48.3272 40.0143 48.22 38.2219 47.0446 36.979C45.8692 35.7362 44.0509 35.503 42.9989 36.4615L32.5014 46.318" stroke="#36A73A" stroke-width="2" stroke-linecap="round" stroke-linejoin="round"/>
</svg>
