<svg width="61" height="44" viewBox="0 0 61 44" fill="none" xmlns="http://www.w3.org/2000/svg">
<path d="M51 12H14V43H51V12Z" fill="white" stroke="#36A73A" stroke-width="2" stroke-linecap="round" stroke-linejoin="round"/>
<path d="M14 12L1 1" stroke="#36A73A" stroke-width="2" stroke-linecap="round" stroke-linejoin="round"/>
<path d="M51 12L60 1" stroke="#36A73A" stroke-width="2" stroke-linecap="round" stroke-linejoin="round"/>
<path d="M48 16H39V20H48V16Z" fill="white" stroke="#36A73A" stroke-width="2" stroke-linecap="round" stroke-linejoin="round"/>
<path d="M36.9877 23.1196L34.0495 17.793C34.0054 17.4312 33.8611 17.4513 33.5365 17.2302C33.395 17.1326 33.2357 17.064 33.0678 17.0283C32.8998 16.9927 32.7264 16.9907 32.5577 17.0224C32.389 17.0542 32.2281 17.1191 32.0845 17.2134C31.9408 17.3077 31.8172 17.4295 31.7206 17.5719L28.2293 22.6814C28.1321 22.8234 28.0639 22.9833 28.0283 23.1517C27.9928 23.3202 27.9907 23.4941 28.0221 23.6633C28.0536 23.8326 28.118 23.9941 28.2116 24.1384C28.3053 24.2827 28.4264 24.4071 28.568 24.5045C28.7096 24.6019 28.8689 24.6704 29.0369 24.7061C29.2049 24.7417 29.3782 24.7438 29.547 24.7123C29.7158 24.6807 29.8768 24.6161 30.0207 24.5222C30.1646 24.4283 30.2887 24.3069 30.3858 24.1648L32.6025 20.9206L34.6709 24.4784L33.0314 25.4392L38.535 28L39 21.9699L36.9877 23.1196Z" fill="#36A73A"/>
<path d="M41.8418 33.964L38.918 28.6551C38.7538 28.3573 38.4809 28.1386 38.1594 28.0471C37.8378 27.9555 37.494 27.9986 37.2034 28.1669C36.9129 28.3351 36.6995 28.6148 36.6102 28.9443C36.5208 29.2739 36.5629 29.6262 36.7271 29.924L38.4744 33.0864L34.8023 33.0469V31.1771L30 34.5372L34.7522 38L34.7753 35.7231L40.2063 35.7784C40.4478 35.8936 40.7186 35.9275 40.9799 35.8753C41.2413 35.8231 41.4799 35.6874 41.6614 35.4878C41.843 35.2881 41.9582 35.0347 41.9906 34.7638C42.023 34.4929 41.9709 34.2185 41.8418 33.9798V33.964Z" fill="#36A73A"/>
<path d="M27.8108 32.707H24.7793L26.7747 30.2665L28.1318 31.2954L28.471 26L23.2034 27.5591L24.8559 28.8092L21.4633 32.7105C21.192 33.0381 21.0304 33.4373 21 33.8552C21 34.0059 21.0309 34.155 21.0909 34.2941C21.1509 34.4333 21.2388 34.5596 21.3496 34.6659C21.4604 34.7723 21.592 34.8565 21.7367 34.9139C21.8814 34.9712 22.0364 35.0005 22.1929 35H27.8108C28.1262 35 28.4287 34.8794 28.6517 34.6647C28.8747 34.45 29 34.1589 29 33.8552C29 33.5516 28.8747 33.2605 28.6517 33.0458C28.4287 32.8311 28.1262 32.7105 27.8108 32.7105V32.707Z" fill="#36A73A"/>
<path d="M51 40H14V43H51V40Z" fill="white" stroke="#36A73A" stroke-width="2" stroke-linecap="round" stroke-linejoin="round"/>
</svg>
