<svg width="59" height="61" viewBox="0 0 59 61" fill="none" xmlns="http://www.w3.org/2000/svg">
<g clip-path="url(#clip0_121_861)">
<path d="M12.278 8.01903C17.2285 3.8111 23.5558 1.49748 30.0863 1.49748C39.3704 1.49748 47.8194 6.03486 52.9354 13.6795L49.8658 13.0506C49.4595 12.9682 49.0608 13.2303 48.978 13.6346C48.8953 14.0389 49.1586 14.4357 49.5649 14.5181L54.4477 15.5214C54.5003 15.5289 54.553 15.5364 54.5982 15.5364C54.9442 15.5364 55.2602 15.2893 55.3355 14.9374L56.3436 10.0781C56.4264 9.67375 56.1631 9.27691 55.7568 9.19455C55.343 9.11219 54.9518 9.37425 54.869 9.77857L54.222 12.9083C48.8276 4.80692 39.8971 0 30.0788 0C23.1947 0 16.5213 2.4409 11.2999 6.88094C10.9839 7.15048 10.9463 7.62219 11.2171 7.93666C11.488 8.25114 11.962 8.28857 12.278 8.01903Z" fill="#82C341"/>
<path d="M21.0358 54.6432C14.8815 52.5243 9.67518 48.2714 6.3648 42.6633C1.66256 34.6967 1.31647 25.1428 5.34912 16.8916L6.35728 19.8417C6.46261 20.1562 6.75603 20.3508 7.07202 20.3508C7.15478 20.3508 7.23754 20.3359 7.31278 20.3134C7.704 20.1786 7.91466 19.7518 7.77924 19.3625L6.17671 14.6679C6.109 14.4807 5.97358 14.3235 5.80053 14.2336C5.61997 14.1438 5.41683 14.1288 5.22874 14.1962L0.511449 15.791C0.120222 15.9258 -0.0904384 16.3526 0.0449862 16.7419C0.180411 17.1312 0.609256 17.3484 1.00048 17.2061L4.03249 16.1803C-0.255957 24.9107 0.0976512 35.0037 5.07074 43.4271C8.55417 49.3346 14.0539 53.8196 20.5392 56.0583C20.622 56.0883 20.7048 56.0958 20.7875 56.0958C21.096 56.0958 21.3894 55.9011 21.4947 55.5941C21.6302 55.2048 21.4195 54.778 21.0283 54.6432H21.0358Z" fill="#82C341"/>
<path d="M58.5031 23.488C58.4278 23.0836 58.0291 22.8141 57.6228 22.889C57.2165 22.9638 56.9457 23.3607 57.0209 23.765C58.2322 30.1293 57.1187 36.7482 53.8761 42.3862C49.2716 50.4127 41.116 55.4592 31.9147 56.0882L33.9837 53.7521C34.2621 53.4451 34.232 52.9659 33.916 52.6964C33.6075 52.4193 33.1335 52.4493 32.8551 52.7638L29.5598 56.485C29.4244 56.6348 29.3642 56.8294 29.3717 57.0241C29.3868 57.2188 29.477 57.406 29.6275 57.5407L33.3667 60.8202C33.5097 60.9475 33.6903 61.0074 33.8633 61.0074C34.074 61.0074 34.2771 60.925 34.4276 60.7528C34.7059 60.4458 34.6758 59.9667 34.3599 59.6971L31.9523 57.5857C41.6878 56.9492 50.3099 51.6182 55.1776 43.1349C58.5933 37.1824 59.767 30.2117 58.4955 23.4954L58.5031 23.488Z" fill="#82C341"/>
<path d="M42.6286 28.879C42.4556 28.7068 42.1998 28.6244 41.9666 28.6693C41.6355 28.7292 33.9238 30.1668 34.4204 34.3972C34.4731 34.824 34.6235 35.2208 34.8342 35.5802L30.4856 39.9079V30.9156C30.4856 30.5038 30.147 30.1668 29.7332 30.1668C29.3194 30.1668 28.9808 30.5038 28.9808 30.9156V39.9079L24.6322 35.5802C24.8504 35.2208 25.0009 34.824 25.046 34.3972C25.5426 30.1668 17.8234 28.7292 17.4998 28.6693C17.2516 28.6244 17.0108 28.7068 16.8302 28.879C16.6572 29.0512 16.5744 29.2983 16.6196 29.5379C16.6798 29.8523 18.034 37.0702 21.9839 37.0702C22.1118 37.0702 22.2397 37.0702 22.3751 37.0478C22.804 36.9953 23.2027 36.8456 23.5639 36.6359L28.9808 42.0269V47.006C28.9808 47.4178 29.3194 47.7548 29.7332 47.7548C30.147 47.7548 30.4856 47.4178 30.4856 47.006V42.0269L35.9026 36.6359C36.2637 36.8531 36.6624 37.0028 37.0913 37.0478C37.2267 37.0627 37.3546 37.0702 37.4825 37.0702C41.4324 37.0702 42.7942 29.8523 42.8468 29.5379C42.892 29.2983 42.8092 29.0512 42.6362 28.879H42.6286ZM22.2021 35.5652C20.2535 35.7899 18.9369 32.5179 18.3651 30.4064C20.4867 30.9755 23.782 32.2783 23.5488 34.225C23.5112 34.5694 23.3457 34.8764 23.1049 35.116C22.8642 35.3556 22.5482 35.5203 22.2096 35.5578L22.2021 35.5652ZM37.2643 35.5652C36.9182 35.5278 36.6022 35.3631 36.3615 35.1235C36.1207 34.8839 35.9552 34.5694 35.9176 34.225C35.6919 32.2858 38.9797 30.9755 41.1014 30.4064C40.5296 32.5179 39.2129 35.7899 37.2643 35.5652Z" fill="#231F20"/>
<path d="M39.751 20.463C41.0663 14.9511 37.6428 9.42161 32.1043 8.11256C26.5658 6.80351 21.0096 10.2106 19.6942 15.7225C18.3788 21.2344 21.8024 26.7638 27.3409 28.0729C32.8794 29.3819 38.4356 25.9749 39.751 20.463Z" fill="#82C341"/>
<path d="M29.7264 25.5544C29.2299 25.5544 28.7333 25.502 28.2518 25.4047C27.7853 25.3074 27.3189 25.1651 26.875 24.9779C26.4386 24.7982 26.0248 24.5661 25.6336 24.304C25.2424 24.042 24.8812 23.7425 24.5502 23.413C24.2191 23.0836 23.9182 22.7167 23.6549 22.3348C23.3916 21.9455 23.1658 21.5262 22.9778 21.0994C22.7897 20.6577 22.6467 20.1934 22.5489 19.7292C22.4511 19.25 22.3984 18.7559 22.3984 18.2617C22.3984 17.7675 22.4511 17.2734 22.5489 16.7942C22.6467 16.3225 22.7897 15.8657 22.9778 15.424C23.1583 14.9897 23.3916 14.5779 23.6549 14.1811C23.9182 13.7992 24.2191 13.4323 24.5502 13.1029C24.8812 12.7734 25.2424 12.4739 25.6336 12.2119C25.9797 11.9797 26.4461 12.0696 26.6794 12.414C26.9126 12.7584 26.8223 13.2227 26.4762 13.4548C26.1678 13.6644 25.8743 13.904 25.611 14.1661C25.3477 14.4281 25.1069 14.7201 24.8963 15.0271C24.6856 15.3341 24.505 15.671 24.3621 16.0155C24.2116 16.3674 24.0988 16.7343 24.0235 17.1011C23.9483 17.483 23.9032 17.8798 23.9032 18.2692C23.9032 18.6585 23.9408 19.0554 24.0235 19.4372C24.0988 19.8116 24.2116 20.171 24.3621 20.5229C24.505 20.8673 24.6856 21.1968 24.8963 21.5037C25.1069 21.8107 25.3477 22.1027 25.611 22.3648C25.8743 22.6269 26.1678 22.8665 26.4762 23.0761C26.7847 23.2858 27.1233 23.4654 27.4618 23.6077C27.8154 23.7575 28.1841 23.8698 28.5527 23.9446C29.3201 24.1019 30.1402 24.1019 30.9001 23.9446C31.2763 23.8698 31.6374 23.7575 31.991 23.6077C32.3371 23.4654 32.6681 23.2858 32.9766 23.0761C33.2851 22.8665 33.5785 22.6269 33.8418 22.3648C34.1051 22.1027 34.3459 21.8107 34.5566 21.5037C34.7672 21.1968 34.9478 20.8673 35.0907 20.5229C35.2412 20.171 35.3541 19.8041 35.4293 19.4372C35.5045 19.0554 35.5497 18.666 35.5497 18.2692C35.5497 17.8723 35.5121 17.483 35.4293 17.1011C35.3541 16.7268 35.2412 16.3599 35.0907 16.0155C34.9478 15.671 34.7672 15.3416 34.5566 15.0271C34.3459 14.7201 34.1127 14.4356 33.8493 14.1736C33.586 13.9115 33.2926 13.6719 32.9841 13.4623C32.638 13.2301 32.5478 12.7659 32.781 12.4215C33.0142 12.0771 33.4807 11.9872 33.8268 12.2193C34.218 12.4814 34.5791 12.7809 34.9102 13.1103C35.2412 13.4398 35.5422 13.7992 35.8055 14.1885C36.0688 14.5854 36.302 14.9972 36.4826 15.4314C36.6707 15.8732 36.8136 16.3374 36.9114 16.8016C37.0093 17.2808 37.0619 17.775 37.0619 18.2692C37.0619 18.7634 37.0093 19.2575 36.9114 19.7367C36.8136 20.2009 36.6707 20.6652 36.4826 21.1069C36.2945 21.5412 36.0688 21.953 35.8055 22.3498C35.5422 22.7392 35.2412 23.0986 34.9102 23.428C34.5791 23.7575 34.218 24.057 33.8268 24.319C33.4355 24.5811 33.0142 24.8057 32.5854 24.9929C32.1415 25.1801 31.675 25.3223 31.2086 25.4197C30.7271 25.517 30.2305 25.5694 29.7339 25.5694L29.7264 25.5544Z" fill="#231F20"/>
<path d="M29.726 19.8639C29.3122 19.8639 28.9736 19.5269 28.9736 19.1151V10.6394C28.9736 10.2276 29.3122 9.89062 29.726 9.89062C30.1398 9.89062 30.4784 10.2276 30.4784 10.6394V19.1151C30.4784 19.5269 30.1398 19.8639 29.726 19.8639Z" fill="#231F20"/>
</g>
<defs>
<clipPath id="clip0_121_861">
<rect width="59" height="61" fill="white"/>
</clipPath>
</defs>
</svg>
