<svg width="40" height="46" viewBox="0 0 40 46" fill="none" xmlns="http://www.w3.org/2000/svg">
<path d="M28 3.50136C28.0004 3.82958 27.9303 4.15466 27.7936 4.45797C27.657 4.76128 27.4566 5.03687 27.2038 5.26896C26.951 5.50105 26.6508 5.68509 26.3205 5.81053C25.9901 5.93597 25.6361 6.00036 25.2786 6H13.7244C13.0023 6 12.3098 5.73684 11.799 5.26833C11.2882 4.79982 11.0008 4.16429 11 3.50136C11 2.83796 11.287 2.20173 11.798 1.73263C12.3089 1.26354 13.0018 1 13.7244 1H25.2786C25.6362 1 25.9903 1.06472 26.3207 1.19046C26.6511 1.3162 26.9512 1.50049 27.204 1.7328C27.4567 1.9651 27.6571 2.24087 27.7937 2.54433C27.9303 2.8478 28.0004 3.173 28 3.50136Z" stroke="#36A73A" stroke-width="1.8" stroke-linecap="round" stroke-linejoin="round"/>
<path d="M31.2873 45H8.14546L4 7H35L31.2873 45Z" fill="white" stroke="#36A73A" stroke-width="1.8" stroke-linecap="round" stroke-linejoin="round"/>
<path d="M39 7.50144C39 8.1641 38.7421 8.79962 38.2831 9.26819C37.824 9.73676 37.2014 10 36.5522 10H3.4478C2.79883 9.99924 2.17666 9.73576 1.71777 9.26735C1.25888 8.79894 1.00074 8.16386 1 7.50144C1 6.83851 1.2578 6.2027 1.71677 5.73367C2.17574 5.26464 2.79834 5.00076 3.4478 5H36.5522C36.8739 5 37.1924 5.06472 37.4896 5.19047C37.7867 5.31621 38.0567 5.50051 38.284 5.73283C38.5114 5.96514 38.6916 6.24092 38.8145 6.54439C38.9373 6.84787 39.0004 7.17308 39 7.50144Z" fill="white" stroke="#36A73A" stroke-width="1.8" stroke-linecap="round" stroke-linejoin="round"/>
<path d="M24.1831 20.5626L21.512 15.7216C21.4712 15.3916 21.338 15.4107 21.0442 15.2088C20.9153 15.1202 20.7702 15.058 20.6173 15.0256C20.4644 14.9933 20.3066 14.9915 20.153 15.0204C19.9994 15.0493 19.853 15.1083 19.7221 15.1939C19.5913 15.2796 19.4786 15.3903 19.3905 15.5198L16.2081 20.1672C16.1199 20.2963 16.0579 20.4415 16.0256 20.5947C15.9934 20.7478 15.9916 20.9058 16.0202 21.0597C16.0489 21.2135 16.1075 21.3602 16.1927 21.4914C16.2779 21.6225 16.388 21.7355 16.5168 21.824C16.6456 21.9125 16.7904 21.9746 16.9432 22.007C17.0959 22.0393 17.2535 22.0411 17.4069 22.0124C17.5604 21.9836 17.7067 21.9249 17.8374 21.8394C17.9682 21.754 18.081 21.6436 18.1692 21.5145L20.1928 18.5635L22.0778 21.7954L20.5872 22.6681L25.573 25L26 19.499L24.1831 20.5626Z" fill="white" stroke="#36A73A" stroke-width="1.8" stroke-linecap="round" stroke-linejoin="round"/>
<path d="M29.8522 31.3782L27.1768 26.5916C27.0263 26.3229 26.7761 26.1254 26.4812 26.0427C26.1863 25.9599 25.8708 25.9986 25.6042 26.1502C25.3376 26.3018 25.1417 26.554 25.0595 26.8512C24.9774 27.1484 25.0158 27.4664 25.1662 27.7351L26.7678 30.5964L23.4116 30.5618L23.4274 28.8732L19 31.8941L23.3536 35L23.3747 32.9471L28.3536 32.9976C28.5747 33.1031 28.8233 33.135 29.0636 33.0887C29.3039 33.0424 29.5233 32.9202 29.6902 32.7399C29.857 32.5596 29.9627 32.3305 29.9918 32.0857C30.0209 31.8409 29.9721 31.5931 29.8522 31.3782Z" fill="white" stroke="#36A73A" stroke-width="1.8" stroke-linecap="round" stroke-linejoin="round"/>
<path d="M15.9599 31.4454H13.306L15.0435 28.7338L16.2336 29.8772L16.5335 24L11.9303 25.7283L13.3774 27.1219L10.4094 31.4513C10.1695 31.816 10.0266 32.2617 10 32.7285C10.0006 33.066 10.1107 33.3894 10.3062 33.6278C10.5016 33.8661 10.7664 34 11.0425 34H15.9599C16.2357 34 16.5003 33.866 16.6954 33.6276C16.8904 33.3892 17 33.0658 17 32.7285C17 32.3913 16.8904 32.0679 16.6954 31.8295C16.5003 31.591 16.2357 31.4571 15.9599 31.4571V31.4454Z" fill="white" stroke="#36A73A" stroke-width="1.8" stroke-linecap="round" stroke-linejoin="round"/>
</svg>
